<?xml version="1.0" encoding="utf-8"?>
<!-- Generator: Adobe Illustrator 17.0.0, SVG Export Plug-In . SVG Version: 6.00 Build 0)  -->
<!DOCTYPE svg PUBLIC "-//W3C//DTD SVG 1.1//EN" "http://www.w3.org/Graphics/SVG/1.1/DTD/svg11.dtd">
<svg version="1.1" id="Layer_1" xmlns="http://www.w3.org/2000/svg" xmlns:xlink="http://www.w3.org/1999/xlink" x="0px" y="0px"
	 width="16.033px" height="30px" viewBox="0 0 16.033 30" enable-background="new 0 0 16.033 30" xml:space="preserve">
<g>
	<path fill="#FFFFFF" d="M0,7.345c0-2.197,0.642-3.959,1.927-5.286c1.231-1.348,3.089-2.033,5.573-2.054
		c1.974,0,3.657,0.446,5.047,1.337c1.39,0.913,2.107,2.457,2.149,4.633c0,1.242-0.324,2.298-0.971,3.168
		c-0.679,0.892-1.656,1.475-2.93,1.751v0.064c1.624,0.138,2.903,0.78,3.837,1.927c0.934,1.136,1.401,2.574,1.401,4.315
		c-0.021,2.038-0.605,3.657-1.751,4.856c-1.178,1.231-2.786,1.858-4.824,1.879c-0.955,0-1.858-0.191-2.707-0.573
		c-0.87-0.393-1.576-0.992-2.118-1.799h-0.08V30H0V7.345z M7.005,9.558h0.653c0.807,0,1.459-0.271,1.958-0.812
		c0.478-0.541,0.716-1.258,0.716-2.149s-0.249-1.619-0.748-2.181C9.086,3.874,8.391,3.603,7.499,3.603
		C5.472,3.625,4.49,4.787,4.554,7.09v8.152c0.032,3.344,1.263,4.983,3.694,4.92c1.04,0,1.842-0.372,2.404-1.115
		c0.552-0.669,0.828-1.491,0.828-2.468c-0.042-2.378-1.263-3.588-3.662-3.63c-0.276,0-0.547,0.048-0.812,0.143V9.558z"/>
</g>
</svg>
