<?xml version="1.0" encoding="utf-8"?>
<!-- Generator: Adobe Illustrator 17.0.0, SVG Export Plug-In . SVG Version: 6.00 Build 0)  -->
<!DOCTYPE svg PUBLIC "-//W3C//DTD SVG 1.1//EN" "http://www.w3.org/Graphics/SVG/1.1/DTD/svg11.dtd">
<svg version="1.1" id="Layer_1" xmlns="http://www.w3.org/2000/svg" xmlns:xlink="http://www.w3.org/1999/xlink" x="0px" y="0px"
	 width="201.105px" height="179.148px" viewBox="0 0 201.105 179.148" enable-background="new 0 0 201.105 179.148"
	 xml:space="preserve">
<g>
	<g>
		<g>
			<g>
				<g>
					<path fill="#000015" d="M138.15,111.319c-2.008,6.032-7.472,13.188-15.991,14.878c-4.235,0.834-9.439-0.03-13.193-1.33
						c-24.584-8.42-49.273-50.528-40.953-76.314c2.19-6.851,7.849-13.926,17.629-15.103c16.086-1.954,31.486,12.015,42.572,29.571
						C138.011,78.559,142.372,98.589,138.15,111.319z M116.703,107.997c5.319,3.258,13.613-0.472,13.829-6.843
						c-2.205-6.664-7.289-12.224-10.513-19.566c-4.444-10.159-10.521-19.8-17.057-27.891c0.791-0.895-0.145-2.125-0.589-2.86
						c-3.253-5.41-13.067-9.794-18.774-4.855c-2.71,2.355-2.369,5.879-0.287,9.398c2.906,4.916,8.342,7.351,12.518,8.805
						c-5.393,2.735-12.71,5.274-18.14,8.641c5.43,8.874,12.974,16.747,18.627,26.27c-1.198,0.584-2.362,1.166-1.534,2.311
						c0.834,0.826,2.362-0.978,3.169-0.051c0.679,1.693,1.138,3.3,1.403,4.898c0.677-0.285,1.017,0.635,1.774,0.012
						c0.757-1.761-1.341-4.281-1.859-6.359c5.271-3.025,9.777-6.24,15.346-9.184c0.417-0.262-0.285-0.826,0.067-1.091
						c1.109-0.74,1.613,0.757,2.657,0.265c-0.313-0.765,0.32-1.276-0.144-2.085c-5.103,1.264-15.52,8.802-19.273,10.366
						c-1.51-3.109-2.959-3.982-3.368-5.87c4.753-3.191,13.919-5.001,15.083-9.015c-6.459,2.969-10.348,4.656-16.394,7.977
						c-2.273-2.316-5.275-7.429-6.425-8.744c6.123-3.954,12.854-6.598,18.591-10.308c-0.349,0.16-0.687,0.268-0.856-0.246
						c1.255-0.783,2.264-0.71,1.273,0.345c0.744-0.467,1.973-0.817,1.569-1.593c-6.922,1.723-14.121,5.706-21.337,10.476
						c-2.623-2.448-5.138-5.066-5.039-8.154c7.289-4.124,15.148-6.111,20.818-10.165c1.35,0.3-1.015,0.942,0.347,1.231
						c0.995-0.319,0.7-1.013,0.442-1.684c-1.335-0.601-4.057,1.253-4.881,1.393c0.787-1.419,1.199-5.505-1.528-5.163
						c-0.318,1.28,0.668,1.933,0.596,3.53c-0.463,0.729-1.543-0.126-1.347,0.773c0.409,0.314,2.014,0.36,1.581,0.883
						c-0.89,0.025-2.824-0.485-2.026-1.657c-0.478,0.234-0.795,0.519-0.904,0.878c-1.75-1.546-3.404-2.742-4.559-2.372
						c0.117-1.771-3.428-1.757-2.382-2.905c-0.502-1.165-0.565,0.661-1.273-0.345c-0.608-2.196-4.205-6.591-1.93-9.556
						c3.077-3.996,10.027-2.911,13.705,0.339c0.654,0.551,0.692,1.793,1.765,1.83c1.478,4.998,5.765,9.059,9.119,14.646
						c0.514-0.169,0.463-0.769,0.792-0.454c3.998,5.72,7.081,14.722,10.484,21.35c2.134,4.159,5.394,7.276,7.256,10.772
						c4.162,7.879-3.131,13.494-9.614,10.482c-0.47-1.916-2.78-1.436-2.765-2.326c0.561-0.488-0.34-4.77-0.233-6.599
						c1.743-0.222,1.012-2.852,2.375-3.886C111.759,95.602,112.458,104.227,116.703,107.997z M116.268,95.475
						c0.932,0.707,1.833,1.579,2.526,3.156c1.289-1.014-1.119-4.849-1.988-3.465C117.835,95.673,116.908,95.234,116.268,95.475z
						 M109.591,85.085c0.535-0.244,2.163-0.337,2.135-1.225C111.043,84.675,109.61,83.982,109.591,85.085z M96.268,57.539
						c-1.574-3.81-6.477-6.632-7.572-2.05C92.426,51.793,93.489,57.83,96.268,57.539z"/>
				</g>
			</g>
		</g>
	</g>
</g>
<g>
	
		<radialGradient id="SVGID_1_" cx="100.4985" cy="1574.0022" r="44.5393" gradientTransform="matrix(1 0 0 0.3873 0 -481.4257)" gradientUnits="userSpaceOnUse">
		<stop  offset="0.4664" style="stop-color:#000000;stop-opacity:0.8"/>
		<stop  offset="0.5083" style="stop-color:#000000;stop-opacity:0.7326"/>
		<stop  offset="0.964" style="stop-color:#000000;stop-opacity:0"/>
	</radialGradient>
	<ellipse fill="url(#SVGID_1_)" cx="100.499" cy="128.185" rx="45.687" ry="17.695"/>
	
		<linearGradient id="SVGID_2_" gradientUnits="userSpaceOnUse" x1="89.0886" y1="-848.9931" x2="85.0337" y2="-838.6024" gradientTransform="matrix(1 0 0 -1 -22.5352 -777.1696)">
		<stop  offset="0.0112" style="stop-color:#961D18"/>
		<stop  offset="0.4719" style="stop-color:#DF5612"/>
		<stop  offset="1" style="stop-color:#F2BE5B"/>
	</linearGradient>
	<path fill="url(#SVGID_2_)" d="M66.827,62.282c-0.097-0.155-0.11,0.386-0.215,0.201c-0.696-1.252-1.288-3.386-1.345-4.913
		c0,0-1.139,0.664-1.883,3.006c-0.133,0.414-0.227,0.66-0.322,0.887c-0.03,0.071,0.06-0.753,0.025-0.687
		c-0.143,0.291-0.546,0.757-0.681,1.285c-0.103,0.409-0.27,0.648-0.326,1.176c-0.016,0.152-0.018-0.615-0.059-0.501
		c-0.968,2.551-1.758,6.15-1.316,11.02c4.364-3.919,10.535-6.847,10.535-6.847C70.573,66.489,68.365,64.764,66.827,62.282z"/>
	
		<linearGradient id="SVGID_3_" gradientUnits="userSpaceOnUse" x1="1067.6396" y1="539.6251" x2="1067.6396" y2="497.2628" gradientTransform="matrix(0.9673 0.2537 0.2537 -0.9673 -1106.8732 329.7493)">
		<stop  offset="0.0562" style="stop-color:#DA6D11"/>
		<stop  offset="1" style="stop-color:#F0C18C"/>
	</linearGradient>
	<path fill="url(#SVGID_3_)" d="M55.422,101.74c0.058-0.741,1.832-15.483,8.66-20.474c5.89-4.312,1.316-2.746-0.958-2.567
		c-2.4,0.193-3.679,1.651-3.215,1.112c0.019-0.022,0.026-0.035,0.021-0.039C59.849,79.677,54.302,84.335,55.422,101.74z"/>
	
		<linearGradient id="SVGID_4_" gradientUnits="userSpaceOnUse" x1="32.8237" y1="-815.0378" x2="18.5007" y2="-838.3639" gradientTransform="matrix(0.9897 -0.0801 -0.0949 -1.1727 -45.5605 -877.1744)">
		<stop  offset="0.0562" style="stop-color:#DA6D11"/>
		<stop  offset="1" style="stop-color:#F0C066"/>
	</linearGradient>
	<path fill="url(#SVGID_4_)" d="M54.635,90.225c0,0,4.02-12.764,12.145-12.655c5.391,0.07,1.116-4.555-0.515-5.257
		c-1.7-0.73-2.11-0.701-2.507-0.349C63.167,72.49,57.816,72.288,54.635,90.225z"/>
	
		<radialGradient id="SVGID_5_" cx="150.1776" cy="-832.6484" r="16.6673" gradientTransform="matrix(1 0 0 -1 -22.5352 -777.1696)" gradientUnits="userSpaceOnUse">
		<stop  offset="0.2571" style="stop-color:#FFE200"/>
		<stop  offset="0.3355" style="stop-color:#FDD900"/>
		<stop  offset="0.4695" style="stop-color:#F9CA00"/>
		<stop  offset="0.6431" style="stop-color:#EDA500"/>
		<stop  offset="0.8469" style="stop-color:#E27613"/>
		<stop  offset="1" style="stop-color:#D94F14"/>
	</radialGradient>
	<path fill="url(#SVGID_5_)" d="M129.12,58.036c0,0,3.834,1.86,6.322,5.821c2.025,3.224,1.056,7.581-0.753,6.826
		C132.877,69.929,129.12,58.036,129.12,58.036z"/>
	
		<radialGradient id="SVGID_6_" cx="156.498" cy="-845.5018" r="8.7067" gradientTransform="matrix(1 0 0 -1 -22.5352 -777.1696)" gradientUnits="userSpaceOnUse">
		<stop  offset="0.1255" style="stop-color:#961D18"/>
		<stop  offset="0.3432" style="stop-color:#9F2518"/>
		<stop  offset="0.73" style="stop-color:#C1361A"/>
		<stop  offset="1" style="stop-color:#D84D14"/>
	</radialGradient>
	<path fill="url(#SVGID_6_)" d="M135.732,71.111c1.056-8.223-6.612-13.075-6.612-13.075s0.5,2.816,1.104,9.077
		C130.913,74.252,135.238,74.959,135.732,71.111z"/>
	
		<radialGradient id="SVGID_7_" cx="145.3443" cy="-908.8948" r="7.744" gradientTransform="matrix(1 0 0 -1 -22.5352 -777.1696)" gradientUnits="userSpaceOnUse">
		<stop  offset="0" style="stop-color:#481C16"/>
		<stop  offset="0.0435" style="stop-color:#521C16"/>
		<stop  offset="0.2485" style="stop-color:#7B1B17"/>
		<stop  offset="0.4348" style="stop-color:#991A17"/>
		<stop  offset="0.5943" style="stop-color:#AB1917"/>
		<stop  offset="0.7084" style="stop-color:#B21917"/>
		<stop  offset="1" style="stop-color:#AA1A19"/>
	</radialGradient>
	<path fill="url(#SVGID_7_)" d="M109.963,134.483c13.885,2.938,24.404-8.786,16.898-11.599
		C120.061,120.339,103.373,133.087,109.963,134.483z"/>
	
		<radialGradient id="SVGID_8_" cx="160.34" cy="-894.1053" r="8.5724" gradientTransform="matrix(1 0 0 -1 -22.5352 -777.1696)" gradientUnits="userSpaceOnUse">
		<stop  offset="0.1255" style="stop-color:#961D18"/>
		<stop  offset="0.3432" style="stop-color:#9F2518"/>
		<stop  offset="0.73" style="stop-color:#C1361A"/>
		<stop  offset="1" style="stop-color:#D84D14"/>
	</radialGradient>
	<path fill="url(#SVGID_8_)" d="M128.092,123.247c13.865-3.033,18.626-18.051,10.63-17.523
		C131.478,106.202,121.512,124.689,128.092,123.247z"/>
	
		<radialGradient id="SVGID_9_" cx="164.5371" cy="-868.9326" r="7.7435" gradientTransform="matrix(1 0 0 -1 -22.5352 -777.1696)" gradientUnits="userSpaceOnUse">
		<stop  offset="0.1255" style="stop-color:#961D18"/>
		<stop  offset="0.3432" style="stop-color:#9F2518"/>
		<stop  offset="0.73" style="stop-color:#C1361A"/>
		<stop  offset="1" style="stop-color:#D84D14"/>
	</radialGradient>
	<path fill="url(#SVGID_9_)" d="M140.397,99.888c9.091-6.574,4.774-18.241,4.774-18.241s-1.997,6.01-3.832,13.127
		C139.525,101.806,134.941,103.835,140.397,99.888z"/>
	
		<radialGradient id="SVGID_10_" cx="162.2328" cy="-850.508" r="9.6766" gradientTransform="matrix(1 0 0 -1 -22.5352 -777.1696)" gradientUnits="userSpaceOnUse">
		<stop  offset="0" style="stop-color:#961D18"/>
		<stop  offset="0.6383" style="stop-color:#C0351A"/>
		<stop  offset="1" style="stop-color:#D84D14"/>
	</radialGradient>
	<path fill="url(#SVGID_10_)" d="M143.099,79.472c-0.973-11.273-7.961-17.098-7.961-17.098s0.706,3.822,1.637,9.078
		C138.039,78.601,143.679,86.182,143.099,79.472z"/>
	
		<linearGradient id="SVGID_11_" gradientUnits="userSpaceOnUse" x1="117.7142" y1="-869.4023" x2="138.4078" y2="-897.7897" gradientTransform="matrix(1 0 0 -1 -22.5352 -777.1696)">
		<stop  offset="0" style="stop-color:#213A69"/>
		<stop  offset="1" style="stop-color:#1F1E29"/>
	</linearGradient>
	<path fill="url(#SVGID_11_)" d="M100.929,102.149c-0.255,0.252,0.039,1.013,0.366,0.98c0.329-0.038,0.838-0.182,0.838-0.182
		s0.257,0.506,0,0.654c-0.255,0.141-0.995,0.081-0.035,0.434c0.984,0.363,1.24,0.254,1.314,0.074c0.071-0.183,0.398-0.8,0.58-0.763
		c0.148-0.325-0.509-0.615-0.145-0.833c0.364-0.22,0.075-1.018,0.075-1.018s-0.511,0.037-0.729,0.399
		c-0.221,0.364-0.512-0.035-0.733-0.035c-0.035,0.217-0.179,0.4-0.179,0.4l-0.149-0.328
		C102.132,101.93,101.111,101.894,100.929,102.149z"/>
	
		<radialGradient id="SVGID_12_" cx="144.0266" cy="-856.8437" r="84.0113" gradientTransform="matrix(1 0 0 -0.9811 -22.5352 -774.7671)" gradientUnits="userSpaceOnUse">
		<stop  offset="0.119" style="stop-color:#FFFFFF"/>
		<stop  offset="0.1221" style="stop-color:#FFFFFC"/>
		<stop  offset="0.2502" style="stop-color:#FFE656"/>
		<stop  offset="0.28" style="stop-color:#FDE24D"/>
		<stop  offset="0.3294" style="stop-color:#F9D633"/>
		<stop  offset="0.3921" style="stop-color:#F3C40A"/>
		<stop  offset="0.4061" style="stop-color:#F1BF00"/>
		<stop  offset="0.4487" style="stop-color:#EDA905"/>
		<stop  offset="0.5478" style="stop-color:#E4790F"/>
		<stop  offset="0.7647" style="stop-color:#D94A14"/>
		<stop  offset="0.9025" style="stop-color:#C23019"/>
		<stop  offset="1" style="stop-color:#B01B1D"/>
	</radialGradient>
	<path fill="url(#SVGID_12_)" d="M133.745,118.965c2.526-4.754,5.954-7.538,7.808-10.827c2.462-4.375,7.116-16.672,3.608-26.59
		c1.608,6.21,1.105,12.52-4.023,15.689c1.659-4.375,2.698-13.975,0.988-22.624c-1.112-5.62-4.629-10.656-6.922-12.226
		c2.111,1.583,3.808,7.253,3.761,9.855c-4.416-7.437-11.622-14.549-22.515-17.552c8.461,5.579,11.622,10.319,13.622,14.536
		c-2.262-2.313-6.135-4.728-8.75-4.929c3.922,2.917,10.485,11.57,9.787,24.679c-1.006-2.111-2.846-5.417-4.154-6.574
		c1.408,12.876,0.175,15.64-0.68,19.06c-0.188-1.571-0.754-2.752-1.081-3.47c0,0-0.151,4.024-2.765,9.757
		c-1.98,4.342-4.025,5.684-4.929,5.531c-0.245-0.017-0.378-0.123-0.376-0.132c0.065-0.562,0.123-1.151-0.027-1.527
		c0,0-0.835,0.289-1.374,1.046c-0.217,0.305-0.499,0.604-0.868,0.884c-0.063,0.049,0.597-0.846,0.547-0.804
		c-0.325,0.264-0.673,0.573-1.023,0.936c-1.282,1.332-2.438,2.807-3.04,2.39c0.561-0.172,1.008-0.885,1.129-1.584
		c-0.504,0.352-1.783,1.307-4.65,1.734c-1.173,0.174-6.164,1.082-12.8-2.238c0.968-0.111,2.416-0.452,3.519,0.201
		c-1.103-1.205-3.77-0.955-5.682-1.559c-1.666-0.527-3.84-2.865-5.089-4.045c5.107,1.251,10.532,0.348,13.668-1.796
		c3.169-2.168,5.047-3.751,6.73-3.376c1.681,0.376,2.803-1.313,1.492-2.813c-1.305-1.501-4.472-3.519-8.781-2.438
		c-3.299,0.826-6.111,3.474-10.744,1.634c-0.28-0.111-0.57-0.24-0.866-0.386c-0.296-0.147,0.969,0.176,0.657-0.009
		c-0.89-0.328-2.51-1.071-2.912-1.352c-0.065-0.049,0.671,0.134,0.594,0.087c-4.398-2.602-4.11-4.684-4.11-5.972
		c0-1.03,0.626-2.424,1.8-3.078c0.634,0.226,1.028,0.432,1.028,0.432s-0.293-0.45-0.478-0.668c0.043-0.016,0.087-0.027,0.132-0.04
		c0.517,0.176,1.683,0.606,2.273,0.902c0.8,0.402,1.069,0.812,1.069,0.812s0.187-0.118-0.008-0.528
		c-0.08-0.172-0.362-0.666-1.154-1.146c0.015-0.001,0.028-0.002,0.038-0.004c0.416,0.165,0.856,0.374,1.342,0.65
		c0.151-0.706,0.456-1.437,0.251-2.716c-0.144-0.9-0.126-1.131-0.351-1.458c-0.193-0.28,0.053-0.403,0.351-0.152
		c-0.072-0.223-0.172-0.444-0.292-0.668c0-0.004,0.003-0.005,0.003-0.01c0.247-1.11,6.861-4.577,7.356-4.942
		c0.684-0.506,1.383-1.289,1.819-2.189c0.317-0.575,0.545-1.393,0.484-2.572c-0.046-0.851-0.55-1.371-7.603-1.312
		c-1.928,0.014-3.183-1.107-3.941-2.177c-0.154-0.233-0.29-0.454-0.412-0.653c-0.166-0.297-0.279-0.561-0.365-0.775
		c0.843-3.058,2.531-5.712,5.165-7.862c0.159-0.133-0.628,0.091-0.479-0.051c0.178-0.167,1.294-0.699,1.503-0.817
		c0.27-0.152-1.215-0.552-2.483-0.289c-1.273,0.263-1.522,0.415-2.178,0.754c0.266-0.276,1.13-0.712,0.917-0.666
		c-1.382,0.31-3.012,1.219-4.401,2.2c-0.011-0.125,0-0.227,0.029-0.427c-0.655,0.34-2.237,1.558-2.641,2.49
		c0-0.202,0-0.303-0.026-0.528c-0.45,0.414-0.883,0.899-1.274,1.442c-0.005,0.008-0.012,0.014-0.016,0.021
		c-4.123-1.024-7.622-0.776-10.547,0.162c-0.7-0.508-1.821-1.287-3.591-4.02c-0.105-0.164-0.116,0.374-0.212,0.201
		c-0.695-1.25-1.288-3.381-1.346-4.906c0,0-1.135,0.66-1.88,3.001c-0.132,0.414-0.223,0.66-0.318,0.886
		c-0.031,0.072,0.055-0.752,0.023-0.686c-0.142,0.292-0.546,0.754-0.677,1.284c-0.099,0.395-0.259,0.636-0.322,1.131
		c-0.004,0.011-0.007,0.021-0.013,0.031c-0.011-0.126-0.018-0.575-0.055-0.486c-0.328,0.868-0.634,1.862-0.88,2.983
		c-0.359,1.774-0.726,4.197-0.508,7.272c-0.002,0.25,0.037,0.491,0.029,0.715c-1.109,1.528-1.833,2.843-2.114,3.491
		c-1.353,2.639-2.739,6.697-3.858,13c0,0,0.752-2.376,2.253-5.065c-1.108,3.388-1.974,8.659-1.465,16.565
		c0.021-0.261,0.252-2.257,0.843-4.95c0.287,5.256,1.535,11.718,5.629,18.724c3.12,5.344,11.341,17.758,31.97,22.403
		c-2.265-0.652-3.672-1.961-3.672-1.961s7.704,2.476,13.328,2.265c-1.761-0.304-2.113-1.156-2.113-1.156s19.992,1.13,26.905-8.3
		c-2.363,2.765-8.347,3.545-10.611,3.57c3.445-3.166,11.062-3.093,19.313-11.213c4.525-4.456,5.015-7.846,5.508-11.014
		C141.818,114.211,137.869,116.7,133.745,118.965z"/>
	
		<radialGradient id="SVGID_13_" cx="129.8195" cy="-870.1399" r="62.4544" gradientTransform="matrix(1 0 0 -0.9759 -22.5352 -770.2646)" gradientUnits="userSpaceOnUse">
		<stop  offset="0.656" style="stop-color:#B01B1D;stop-opacity:0"/>
		<stop  offset="0.91" style="stop-color:#B11A1B;stop-opacity:0.7752"/>
		<stop  offset="0.9837" style="stop-color:#B21917"/>
	</radialGradient>
	<path fill="url(#SVGID_13_)" d="M133.745,118.965c2.526-4.754,5.954-7.538,7.808-10.827c2.462-4.375,7.116-16.672,3.608-26.59
		c1.608,6.21,1.105,12.52-4.023,15.689c1.659-4.375,2.698-13.975,0.988-22.624c-1.112-5.62-4.629-10.656-6.922-12.226
		c2.111,1.583,3.808,7.253,3.761,9.855c-4.416-7.437-11.622-14.549-22.515-17.552c8.461,5.579,11.622,10.319,13.622,14.536
		c-2.262-2.313-6.135-4.728-8.75-4.929c3.922,2.917,10.485,11.57,9.787,24.679c-1.006-2.111-2.846-5.417-4.154-6.574
		c1.408,12.876,0.175,15.64-0.68,19.06c-0.188-1.571-0.754-2.752-1.081-3.47c0,0-0.151,4.024-2.765,9.757
		c-1.98,4.342-4.025,5.684-4.929,5.531c-0.245-0.017-0.378-0.123-0.376-0.132c0.065-0.562,0.123-1.151-0.027-1.527
		c0,0-0.835,0.289-1.374,1.046c-0.217,0.305-0.499,0.604-0.868,0.884c-0.063,0.049,0.597-0.846,0.547-0.804
		c-0.325,0.264-0.673,0.573-1.023,0.936c-1.282,1.332-2.438,2.807-3.04,2.39c0.561-0.172,1.008-0.885,1.129-1.584
		c-0.504,0.352-1.783,1.307-4.65,1.734c-1.173,0.174-6.164,1.082-12.8-2.238c0.968-0.111,2.416-0.452,3.519,0.201
		c-1.103-1.205-3.77-0.955-5.682-1.559c-1.666-0.527-3.84-2.865-5.089-4.045c5.107,1.251,10.532,0.348,13.668-1.796
		c3.169-2.168,5.047-3.751,6.73-3.376c1.681,0.376,2.803-1.313,1.492-2.813c-1.305-1.501-4.472-3.519-8.781-2.438
		c-3.299,0.826-6.111,3.474-10.744,1.634c-0.28-0.111-0.57-0.24-0.866-0.386c-0.296-0.147,0.969,0.176,0.657-0.009
		c-0.89-0.328-2.51-1.071-2.912-1.352c-0.065-0.049,0.671,0.134,0.594,0.087c-4.398-2.602-4.11-4.684-4.11-5.972
		c0-1.03,0.626-2.424,1.8-3.078c0.634,0.226,1.028,0.432,1.028,0.432s-0.293-0.45-0.478-0.668c0.043-0.016,0.087-0.027,0.132-0.04
		c0.517,0.176,1.683,0.606,2.273,0.902c0.8,0.402,1.069,0.812,1.069,0.812s0.187-0.118-0.008-0.528
		c-0.08-0.172-0.362-0.666-1.154-1.146c0.015-0.001,0.028-0.002,0.038-0.004c0.416,0.165,0.856,0.374,1.342,0.65
		c0.151-0.706,0.456-1.437,0.251-2.716c-0.144-0.9-0.126-1.131-0.351-1.458c-0.193-0.28,0.053-0.403,0.351-0.152
		c-0.072-0.223-0.172-0.444-0.292-0.668c0-0.004,0.003-0.005,0.003-0.01c0.247-1.11,6.861-4.577,7.356-4.942
		c0.684-0.506,1.383-1.289,1.819-2.189c0.317-0.575,0.545-1.393,0.484-2.572c-0.046-0.851-0.55-1.371-7.603-1.312
		c-1.928,0.014-3.183-1.107-3.941-2.177c-0.154-0.233-0.29-0.454-0.412-0.653c-0.166-0.297-0.279-0.561-0.365-0.775
		c0.843-3.058,2.531-5.712,5.165-7.862c0.159-0.133-0.628,0.091-0.479-0.051c0.178-0.167,1.294-0.699,1.503-0.817
		c0.27-0.152-1.215-0.552-2.483-0.289c-1.273,0.263-1.522,0.415-2.178,0.754c0.266-0.276,1.13-0.712,0.917-0.666
		c-1.382,0.31-3.012,1.219-4.401,2.2c-0.011-0.125,0-0.227,0.029-0.427c-0.655,0.34-2.237,1.558-2.641,2.49
		c0-0.202,0-0.303-0.026-0.528c-0.45,0.414-0.883,0.899-1.274,1.442c-0.005,0.008-0.012,0.014-0.016,0.021
		c-4.123-1.024-7.622-0.776-10.547,0.162c-0.7-0.508-1.821-1.287-3.591-4.02c-0.105-0.164-0.116,0.374-0.212,0.201
		c-0.695-1.25-1.288-3.381-1.346-4.906c0,0-1.135,0.66-1.88,3.001c-0.132,0.414-0.223,0.66-0.318,0.886
		c-0.031,0.072,0.055-0.752,0.023-0.686c-0.142,0.292-0.546,0.754-0.677,1.284c-0.099,0.395-0.259,0.636-0.322,1.131
		c-0.004,0.011-0.007,0.021-0.013,0.031c-0.011-0.126-0.018-0.575-0.055-0.486c-0.328,0.868-0.634,1.862-0.88,2.983
		c-0.359,1.774-0.726,4.197-0.508,7.272c-0.002,0.25,0.037,0.491,0.029,0.715c-1.109,1.528-1.833,2.843-2.114,3.491
		c-1.353,2.639-2.739,6.697-3.858,13c0,0,0.752-2.376,2.253-5.065c-1.108,3.388-1.974,8.659-1.465,16.565
		c0.021-0.261,0.252-2.257,0.843-4.95c0.287,5.256,1.535,11.718,5.629,18.724c3.12,5.344,11.341,17.758,31.97,22.403
		c-2.265-0.652-3.672-1.961-3.672-1.961s7.704,2.476,13.328,2.265c-1.761-0.304-2.113-1.156-2.113-1.156s19.992,1.13,26.905-8.3
		c-2.363,2.765-8.347,3.545-10.611,3.57c3.445-3.166,11.062-3.093,19.313-11.213c4.525-4.456,5.015-7.846,5.508-11.014
		C141.818,114.211,137.869,116.7,133.745,118.965z"/>
	
		<radialGradient id="SVGID_14_" cx="135.6101" cy="-891.2964" r="63.7592" gradientTransform="matrix(0.5289 -0.8327 -0.8392 -0.5131 -706.6606 -244.7012)" gradientUnits="userSpaceOnUse">
		<stop  offset="0.7099" style="stop-color:#E75C0E;stop-opacity:0"/>
		<stop  offset="0.8392" style="stop-color:#E75E0E;stop-opacity:0.5053"/>
		<stop  offset="0.8857" style="stop-color:#E9650C;stop-opacity:0.6873"/>
		<stop  offset="0.9189" style="stop-color:#EB7009;stop-opacity:0.817"/>
		<stop  offset="0.9455" style="stop-color:#EF8105;stop-opacity:0.9211"/>
		<stop  offset="0.9657" style="stop-color:#F39400"/>
	</radialGradient>
	<path fill="url(#SVGID_14_)" d="M133.745,118.965c2.526-4.754,5.954-7.538,7.808-10.827c2.462-4.375,7.116-16.672,3.608-26.59
		c1.608,6.21,1.105,12.52-4.023,15.689c1.659-4.375,2.698-13.975,0.988-22.624c-1.112-5.62-4.629-10.656-6.922-12.226
		c2.111,1.583,3.808,7.253,3.761,9.855c-4.416-7.437-11.622-14.549-22.515-17.552c8.461,5.579,11.622,10.319,13.622,14.536
		c-2.262-2.313-6.135-4.728-8.75-4.929c3.922,2.917,10.485,11.57,9.787,24.679c-1.006-2.111-2.846-5.417-4.154-6.574
		c1.408,12.876,0.175,15.64-0.68,19.06c-0.188-1.571-0.754-2.752-1.081-3.47c0,0-0.151,4.024-2.765,9.757
		c-1.98,4.342-4.025,5.684-4.929,5.531c-0.245-0.017-0.378-0.123-0.376-0.132c0.065-0.562,0.123-1.151-0.027-1.527
		c0,0-0.835,0.289-1.374,1.046c-0.217,0.305-0.499,0.604-0.868,0.884c-0.063,0.049,0.597-0.846,0.547-0.804
		c-0.325,0.264-0.673,0.573-1.023,0.936c-1.282,1.332-2.438,2.807-3.04,2.39c0.561-0.172,1.008-0.885,1.129-1.584
		c-0.504,0.352-1.783,1.307-4.65,1.734c-1.173,0.174-6.164,1.082-12.8-2.238c0.968-0.111,2.416-0.452,3.519,0.201
		c-1.103-1.205-3.77-0.955-5.682-1.559c-1.666-0.527-3.84-2.865-5.089-4.045c5.107,1.251,10.532,0.348,13.668-1.796
		c3.169-2.168,5.047-3.751,6.73-3.376c1.681,0.376,2.803-1.313,1.492-2.813c-1.305-1.501-4.472-3.519-8.781-2.438
		c-3.299,0.826-6.111,3.474-10.744,1.634c-0.28-0.111-0.57-0.24-0.866-0.386c-0.296-0.147,0.969,0.176,0.657-0.009
		c-0.89-0.328-2.51-1.071-2.912-1.352c-0.065-0.049,0.671,0.134,0.594,0.087c-4.398-2.602-4.11-4.684-4.11-5.972
		c0-1.03,0.626-2.424,1.8-3.078c0.634,0.226,1.028,0.432,1.028,0.432s-0.293-0.45-0.478-0.668c0.043-0.016,0.087-0.027,0.132-0.04
		c0.517,0.176,1.683,0.606,2.273,0.902c0.8,0.402,1.069,0.812,1.069,0.812s0.187-0.118-0.008-0.528
		c-0.08-0.172-0.362-0.666-1.154-1.146c0.015-0.001,0.028-0.002,0.038-0.004c0.416,0.165,0.856,0.374,1.342,0.65
		c0.151-0.706,0.456-1.437,0.251-2.716c-0.144-0.9-0.126-1.131-0.351-1.458c-0.193-0.28,0.053-0.403,0.351-0.152
		c-0.072-0.223-0.172-0.444-0.292-0.668c0-0.004,0.003-0.005,0.003-0.01c0.247-1.11,6.861-4.577,7.356-4.942
		c0.684-0.506,1.383-1.289,1.819-2.189c0.317-0.575,0.545-1.393,0.484-2.572c-0.046-0.851-0.55-1.371-7.603-1.312
		c-1.928,0.014-3.183-1.107-3.941-2.177c-0.154-0.233-0.29-0.454-0.412-0.653c-0.166-0.297-0.279-0.561-0.365-0.775
		c0.843-3.058,2.531-5.712,5.165-7.862c0.159-0.133-0.628,0.091-0.479-0.051c0.178-0.167,1.294-0.699,1.503-0.817
		c0.27-0.152-1.215-0.552-2.483-0.289c-1.273,0.263-1.522,0.415-2.178,0.754c0.266-0.276,1.13-0.712,0.917-0.666
		c-1.382,0.31-3.012,1.219-4.401,2.2c-0.011-0.125,0-0.227,0.029-0.427c-0.655,0.34-2.237,1.558-2.641,2.49
		c0-0.202,0-0.303-0.026-0.528c-0.45,0.414-0.883,0.899-1.274,1.442c-0.005,0.008-0.012,0.014-0.016,0.021
		c-4.123-1.024-7.622-0.776-10.547,0.162c-0.7-0.508-1.821-1.287-3.591-4.02c-0.105-0.164-0.116,0.374-0.212,0.201
		c-0.695-1.25-1.288-3.381-1.346-4.906c0,0-1.135,0.66-1.88,3.001c-0.132,0.414-0.223,0.66-0.318,0.886
		c-0.031,0.072,0.055-0.752,0.023-0.686c-0.142,0.292-0.546,0.754-0.677,1.284c-0.099,0.395-0.259,0.636-0.322,1.131
		c-0.004,0.011-0.007,0.021-0.013,0.031c-0.011-0.126-0.018-0.575-0.055-0.486c-0.328,0.868-0.634,1.862-0.88,2.983
		c-0.359,1.774-0.726,4.197-0.508,7.272c-0.002,0.25,0.037,0.491,0.029,0.715c-1.109,1.528-1.833,2.843-2.114,3.491
		c-1.353,2.639-2.739,6.697-3.858,13c0,0,0.752-2.376,2.253-5.065c-1.108,3.388-1.974,8.659-1.465,16.565
		c0.021-0.261,0.252-2.257,0.843-4.95c0.287,5.256,1.535,11.718,5.629,18.724c3.12,5.344,11.341,17.758,31.97,22.403
		c-2.265-0.652-3.672-1.961-3.672-1.961s7.704,2.476,13.328,2.265c-1.761-0.304-2.113-1.156-2.113-1.156s19.992,1.13,26.905-8.3
		c-2.363,2.765-8.347,3.545-10.611,3.57c3.445-3.166,11.062-3.093,19.313-11.213c4.525-4.456,5.015-7.846,5.508-11.014
		C141.818,114.211,137.869,116.7,133.745,118.965z"/>
	
		<radialGradient id="SVGID_15_" cx="118.0733" cy="-1263.7502" r="20.5116" gradientTransform="matrix(1 0 0 -0.6267 -22.5352 -718.9538)" gradientUnits="userSpaceOnUse">
		<stop  offset="0" style="stop-color:#DC4F14;stop-opacity:0.1"/>
		<stop  offset="0.3058" style="stop-color:#DA4E14;stop-opacity:0.845"/>
		<stop  offset="0.5559" style="stop-color:#B01B1D"/>
	</radialGradient>
	<path fill="url(#SVGID_15_)" d="M99.224,74.868c-0.046-0.851-0.608-1.462-7.663-1.405c-2.905,0.024-4.259-2.503-4.706-3.573
		c-0.751,2.732-0.887,5.547-0.315,8.868c0.372,2.177,1.927,4.036,2.795,5.347c0.201,0.203,0.304,0.25,0.359,0.126
		c0.315-0.687,6.524-4.207,7.016-4.576C97.201,79.286,99.362,77.466,99.224,74.868z"/>
	
		<radialGradient id="SVGID_16_" cx="-147.8445" cy="-2316.3665" r="17.2669" gradientTransform="matrix(0.9539 -0.2859 -0.1382 -0.4185 -85.1131 -938.0852)" gradientUnits="userSpaceOnUse">
		<stop  offset="0" style="stop-color:#DC4F14;stop-opacity:0"/>
		<stop  offset="0.446" style="stop-color:#D94F14;stop-opacity:0.8"/>
		<stop  offset="0.7224" style="stop-color:#B01B1D"/>
	</radialGradient>
	<path fill="url(#SVGID_16_)" d="M89.543,74.047c0,0,2.447,1.192,2.819,1.959c0.115,0.233-1.241-0.406-1.168-0.154
		c0.082,0.273,1.76,1.123,1.813,1.536c0.041,0.307-0.926-0.346-1.451-0.423c0.323,0.249,0.72,0.661,0.484,0.921
		c-0.235,0.26-1.102,0.367-1.248,0.459c-2.244,1.445,3.179,1.764,5.143,0.711c1.966-1.051,3.17-2.592,3.24-2.824
		c0.07-0.228,0.715-2.301-3.387-1.581C93.196,75.107,91.587,75.058,89.543,74.047z"/>
	
		<radialGradient id="SVGID_17_" cx="134.7137" cy="-867.2156" r="46.4738" gradientTransform="matrix(1 0 0 -1 -22.5352 -777.1696)" gradientUnits="userSpaceOnUse">
		<stop  offset="0.4632" style="stop-color:#F1BA00"/>
		<stop  offset="0.722" style="stop-color:#E05710"/>
		<stop  offset="0.7815" style="stop-color:#D94F12"/>
		<stop  offset="0.875" style="stop-color:#C83817"/>
		<stop  offset="0.9698" style="stop-color:#B01B1D"/>
	</radialGradient>
	<path fill="url(#SVGID_17_)" d="M122.956,127.714c-2.363,1.308-7.972,3.017-9.58,3.093c9.78-3.017,12.924-7.116,14.536-9.832
		c5.053-0.981,14.281-5.585,14.661-10.912c-0.38,7.291-6.424,12.355-10.741,15.288c-5.104,3.469-9.445,3.742-13.124,6.11
		C119.84,130.655,121.297,129.626,122.956,127.714z"/>
	<g>
		
			<radialGradient id="SVGID_18_" cx="167.3122" cy="-840.9059" r="56.2143" gradientTransform="matrix(1 0 0 -1 -22.5352 -777.1696)" gradientUnits="userSpaceOnUse">
			<stop  offset="0.3064" style="stop-color:#FFE200"/>
			<stop  offset="0.482" style="stop-color:#F9CA00"/>
			<stop  offset="0.8355" style="stop-color:#E05710"/>
			<stop  offset="1" style="stop-color:#E05710"/>
		</radialGradient>
		<path fill="url(#SVGID_18_)" d="M145.171,81.647c3.051,9.94-1.943,14.244-4.058,15.566c2.688-7.401,3.663-16.605,0.735-24.691
			c-2.446-6.752-6.644-10.134-6.644-10.134c5.885,6.449,5.213,13.565,3.497,18.561c0.803,4.718-1.913,17.841,1.48,17.222
			c-0.817,7.335-3.976,16.328-5.381,19.058c2.34-3.694,5.701-7.152,7.241-10.033C144.986,101.701,148.382,90.902,145.171,81.647z"/>
	</g>
	
		<radialGradient id="SVGID_19_" cx="150.6709" cy="-862.287" r="22.8558" gradientTransform="matrix(1 0 0 -1 -22.5352 -777.1696)" gradientUnits="userSpaceOnUse">
		<stop  offset="0.0895" style="stop-color:#FFFFFF"/>
		<stop  offset="0.1151" style="stop-color:#FFFEF9"/>
		<stop  offset="0.1509" style="stop-color:#FFFCE6"/>
		<stop  offset="0.1928" style="stop-color:#FFF9C8"/>
		<stop  offset="0.2392" style="stop-color:#FFF49F"/>
		<stop  offset="0.2894" style="stop-color:#FFEE69"/>
		<stop  offset="0.342" style="stop-color:#FFE729"/>
		<stop  offset="0.3727" style="stop-color:#FFE200"/>
		<stop  offset="0.4289" style="stop-color:#FCD800"/>
		<stop  offset="0.5225" style="stop-color:#F3BF00"/>
		<stop  offset="0.5378" style="stop-color:#F1BA00"/>
		<stop  offset="1" style="stop-color:#E05710"/>
	</radialGradient>
	<path fill="url(#SVGID_19_)" d="M133.193,83.961c0,0-1.295,2.532-1.208,7.461c-1.68-6.43-5.03-9.021-5.03-9.021
		c0.454,5.182,1.358,12.723-0.655,19.162c0.227,1.885,0.704,6.487-1.105,11.466c2.943-3.395,6.865-6.135,7.418-8.852
		c0.012-0.089,0.017-0.178,0.027-0.266c0.996,0.185,2.367-0.562,3.562-1.785c0.981-1.688,3.594-6.748,3.829-9.466
		C133.896,90.197,133.193,83.961,133.193,83.961z"/>
	
		<radialGradient id="SVGID_20_" cx="155.1013" cy="-859.5256" r="41.4805" gradientTransform="matrix(1 0 0 -1 -22.5352 -777.1696)" gradientUnits="userSpaceOnUse">
		<stop  offset="0.0895" style="stop-color:#FFFFFF"/>
		<stop  offset="0.1151" style="stop-color:#FFFEF9"/>
		<stop  offset="0.1509" style="stop-color:#FFFCE6"/>
		<stop  offset="0.1928" style="stop-color:#FFF9C8"/>
		<stop  offset="0.2392" style="stop-color:#FFF49F"/>
		<stop  offset="0.2894" style="stop-color:#FFEE69"/>
		<stop  offset="0.342" style="stop-color:#FFE729"/>
		<stop  offset="0.3727" style="stop-color:#FFE200"/>
		<stop  offset="0.4289" style="stop-color:#FCD800"/>
		<stop  offset="0.5225" style="stop-color:#F3BF00"/>
		<stop  offset="0.5378" style="stop-color:#F1BA00"/>
		<stop  offset="0.741" style="stop-color:#E06C13"/>
		<stop  offset="0.9424" style="stop-color:#D94F14"/>
	</radialGradient>
	<path fill="url(#SVGID_20_)" d="M132.084,100.859c8.035-11.24,5.231-22.933,4.375-26.554c11.518,18.908-0.274,40.861-2.688,44.532
		c-0.655,0.529-4.351,1.912-5.859,2.064c0.501-0.757,1.76-3.397,1.61-6.489c-1.736,4.274-7.961,7.455-11.394,8.625
		C124.088,118.737,130.929,106.742,132.084,100.859z"/>
	<g>
		
			<radialGradient id="SVGID_21_" cx="148.493" cy="-870.3301" r="35.1181" gradientTransform="matrix(1 0 0 -1 -22.5352 -777.1696)" gradientUnits="userSpaceOnUse">
			<stop  offset="0.0895" style="stop-color:#FFFFFF"/>
			<stop  offset="0.1064" style="stop-color:#FFFEF9"/>
			<stop  offset="0.1301" style="stop-color:#FFFCE6"/>
			<stop  offset="0.1579" style="stop-color:#FFF9C8"/>
			<stop  offset="0.1886" style="stop-color:#FFF49F"/>
			<stop  offset="0.2219" style="stop-color:#FFEE69"/>
			<stop  offset="0.2567" style="stop-color:#FFE729"/>
			<stop  offset="0.277" style="stop-color:#FFE200"/>
			<stop  offset="0.3292" style="stop-color:#FCD800"/>
			<stop  offset="0.4162" style="stop-color:#F3BF00"/>
			<stop  offset="0.4303" style="stop-color:#F1BA00"/>
			<stop  offset="0.4717" style="stop-color:#EDA904"/>
			<stop  offset="0.6316" style="stop-color:#E06C13"/>
			<stop  offset="0.7892" style="stop-color:#DC5B14"/>
			<stop  offset="0.9483" style="stop-color:#D94F14"/>
		</radialGradient>
		<path fill="url(#SVGID_21_)" d="M130.728,92.41c0,0,0.655,9.782-4.27,17.612c1.338-7.371-1.263-12.03-1.263-12.03
			s-0.36,3.996-1.935,7.845c-2.716,6.64-5.169,7.998-6.137,7.313c-2.091,8.261-15.874,7.876-15.874,7.876
			c3.129,0.772,14.101,1.394,22.151-4.537c-0.455,1.055-2.917,6.012-8.859,8.58c5.872-0.353,13.607-6.575,14.981-10.656
			c0.098,3.067-0.882,5.205-1.534,6.436C137.793,109.875,130.728,92.41,130.728,92.41z"/>
	</g>
	
		<linearGradient id="SVGID_22_" gradientUnits="userSpaceOnUse" x1="124.9295" y1="-890.8691" x2="119.0331" y2="-916.5607" gradientTransform="matrix(0.9995 -0.0314 -0.0314 -0.9995 -37.9395 -780.9031)">
		<stop  offset="0" style="stop-color:#FFEC1C"/>
		<stop  offset="0.0028" style="stop-color:#FFEB15"/>
		<stop  offset="0.0939" style="stop-color:#FAC80D"/>
		<stop  offset="0.188" style="stop-color:#F6AC06"/>
		<stop  offset="0.2699" style="stop-color:#F49A01"/>
		<stop  offset="0.3298" style="stop-color:#F39400"/>
		<stop  offset="0.8202" style="stop-color:#DB5113;stop-opacity:0.0592"/>
	</linearGradient>
	<path fill="url(#SVGID_22_)" d="M99.634,126.425c5.118-0.463,9.276-1.606,12.105-5.319c-4.618,0.775-8.275,0.446-10.537-0.089
		c0,0,3.624,0.15,8.214-1.005c5.312-1.34,11.922-4.433,15.696-11.546C124.939,125.4,107.735,128.773,99.634,126.425z"/>
	
		<linearGradient id="SVGID_23_" gradientUnits="userSpaceOnUse" x1="88.9477" y1="-849.4925" x2="83.6971" y2="-836.0375" gradientTransform="matrix(1 0 0 -1 -22.5352 -777.1696)">
		<stop  offset="0.1688" style="stop-color:#B01B1D"/>
		<stop  offset="0.4063" style="stop-color:#BE2C1A;stop-opacity:0.7437"/>
		<stop  offset="0.623" style="stop-color:#C73718;stop-opacity:0.5097"/>
		<stop  offset="1" style="stop-color:#DC4F14;stop-opacity:0"/>
	</linearGradient>
	<path fill="url(#SVGID_23_)" d="M66.822,62.284c-0.104-0.167-0.116,0.374-0.214,0.2c-0.697-1.248-1.286-3.38-1.345-4.907
		c0,0-1.135,0.664-1.879,3.002c-0.133,0.415-0.228,0.66-0.322,0.886c-0.03,0.072,0.059-0.751,0.025-0.684
		c-0.143,0.29-0.546,0.753-0.679,1.282c-0.104,0.409-0.272,0.648-0.328,1.177c-0.016,0.149-0.016-0.615-0.059-0.503
		c-1.825,4.599-1.609,11.293-1.384,11.003c4.334-5.628,9.789-7.435,9.789-7.435C69.761,65.886,68.355,64.761,66.822,62.284z"/>
	<g>
		
			<linearGradient id="SVGID_24_" gradientUnits="userSpaceOnUse" x1="110.1881" y1="-859.6142" x2="117.1829" y2="-856.5364" gradientTransform="matrix(1 0 0 -1 -22.5352 -777.1696)">
			<stop  offset="0.0746" style="stop-color:#D94F14"/>
			<stop  offset="0.2983" style="stop-color:#E99A6C"/>
			<stop  offset="0.6668" style="stop-color:#F7DAB2"/>
			<stop  offset="1" style="stop-color:#FBF7CE"/>
		</linearGradient>
		<path fill="url(#SVGID_24_)" d="M97.148,79.273c0.372-0.279,1.641-1.45,1.958-2.839c-0.23,0.093-0.252-0.17-0.524-0.056
			c-0.463,0.488-1.629,1.692-2.967,2.543c0.377-0.352,1.006-0.829,1.182-1.107c-1.462,1.006-3.258,1.72-4.677,1.561
			c-0.213-0.008,1.047,0.137,2.127-0.735c-1.08,0.488-2.895,0.452-3.085,0.382c-0.165-0.063,1.791-0.251,1.62-0.311
			c-0.903-0.316-2.1-0.103-2.369,0.033c-0.489,0.244-0.987,0.581-1.361,1.006c0.196-0.26,0.291-0.495,0.512-0.89
			c-0.679,0.654-1.624,1.346-1.746,1.392c0.098-0.195,1.644-1.386,1.351-1.276c-0.177,0.175-0.822,0.546-1.274,0.874
			c-0.13,0.07,0.916-0.855,0.809-0.793c-1.743,0.453-1.564,1.409-1.608,1.441c0.038,0.055,0.038,0.191,0.076,0.245
			c0.213,0.638,0.961,1.696,1.679,2.715c0.521,0.62,0.669,1.319,0.716,1.094C89.813,83.446,96.653,79.643,97.148,79.273z"/>
		
			<linearGradient id="SVGID_25_" gradientUnits="userSpaceOnUse" x1="110.8303" y1="-860.4117" x2="128.8849" y2="-851.3422" gradientTransform="matrix(1 0 0 -1 -22.5352 -777.1696)">
			<stop  offset="0.0435" style="stop-color:#D94F14"/>
			<stop  offset="0.2582" style="stop-color:#EEAB7D"/>
			<stop  offset="1" style="stop-color:#FBF7CE"/>
		</linearGradient>
		<path fill="url(#SVGID_25_)" d="M98.742,76.723c-0.059-0.01-0.103-0.837-0.033-0.627c0.058,0.175-0.07,1.883-1.604,2.859
			c-0.326,0.207-0.031-0.554-0.402-0.162c-0.61,0.649-2.074,2.81-5.815,2.81c-0.14,0,1.472-0.715,1.265-0.664
			c-0.378,0.099-0.835,0.246-2.289,0.71c-0.13,0.042,1.224-0.843,1.085-0.799c-0.179,0.057-0.991,0.591-1.969,1.01
			c0.466-0.464,1.023-0.947,0.847-0.851c-0.776,0.456-1.362,0.931-1.697,1.432c0.233,0.379,0.522,0.631,0.717,1.02
			c0.522,0.62,0.57,1.271,0.716,1.094c1.369-1.66,6.837-4.202,8.062-5.495C98.882,77.734,98.391,77.925,98.742,76.723z"/>
	</g>
	
		<radialGradient id="SVGID_26_" cx="116.9215" cy="-996.8693" r="24.8252" gradientTransform="matrix(1 0 0 -0.8428 -22.5352 -733.9857)" gradientUnits="userSpaceOnUse">
		<stop  offset="0.5" style="stop-color:#DC4F14;stop-opacity:0"/>
		<stop  offset="0.75" style="stop-color:#DA4E14;stop-opacity:0.7747"/>
		<stop  offset="0.95" style="stop-color:#B01B1D"/>
	</radialGradient>
	<path fill="url(#SVGID_26_)" d="M90.667,114.482c-7.007-2.19-15.02-5.432-15.651-14.617c-0.83-12.068,10.292-10.779,10.292-10.779
		c-0.397,0.152-1.255,1.053-1.535,2.05c-0.307,1.091-0.895,3.235,1.617,5.449c3.957,3.488-6.516,9.978,11.33,18.275
		C97.148,115.06,92.736,115.128,90.667,114.482z"/>
	
		<linearGradient id="SVGID_27_" gradientUnits="userSpaceOnUse" x1="117.6221" y1="-856.3827" x2="122.8823" y2="-848.2852" gradientTransform="matrix(1 0 0 -1 -22.5352 -777.1696)">
		<stop  offset="0" style="stop-color:#3E3B3C"/>
		<stop  offset="0.6508" style="stop-color:#824039"/>
		<stop  offset="1" style="stop-color:#D94F14"/>
	</linearGradient>
	<path fill="url(#SVGID_27_)" d="M99.315,76.879c0.319-0.78,0.682-2.614-0.364-2.998c-0.872-0.209-1.611-0.36-3.033-0.328
		c0.468,0.117,1.813,0.382,2.162,1.009c0.666,1.2,0.125,3.538-0.104,4.15C98.692,78.17,99.001,77.646,99.315,76.879z"/>
	
		<radialGradient id="SVGID_28_" cx="-5.7772" cy="-1283.3361" r="22.7635" gradientTransform="matrix(0.9863 -0.1647 -0.1249 -0.7478 -64.1309 -865.6365)" gradientUnits="userSpaceOnUse">
		<stop  offset="0.5003" style="stop-color:#DC4F14;stop-opacity:0"/>
		<stop  offset="0.6557" style="stop-color:#D94F14"/>
		<stop  offset="0.8145" style="stop-color:#B01B1D"/>
	</radialGradient>
	<path fill="url(#SVGID_28_)" d="M87.883,108.616c4.902,1.16,10.425,0.341,13.572-1.838c2.115-1.463,5.159-3.626,6.552-3.392
		c-1.573-0.441-2.763-0.616-4.135-0.55c-0.248,0.012-0.503,0.032-0.766,0.06c-0.466,0.05-0.963,0.112-1.505,0.22
		c-0.844,0.17-1.737,0.811-2.608,0.811c-0.057,0,0.81-0.45,0.74-0.431c-0.448,0.123-0.941,0.212-1.465,0.333
		c-0.314,0.073-0.626,0.137-0.936,0.195c-9.822,1.82-18.826-3.512-18.826-3.512C77.988,102.969,82.371,107.31,87.883,108.616z"/>
	
		<radialGradient id="SVGID_29_" cx="121.8067" cy="-861.6144" r="42.8821" gradientTransform="matrix(0.9996 -0.0268 -0.0263 -0.9807 -25.9673 -785.912)" gradientUnits="userSpaceOnUse">
		<stop  offset="0" style="stop-color:#FFDE00;stop-opacity:0"/>
		<stop  offset="0.3554" style="stop-color:#FFD700;stop-opacity:0.5153"/>
		<stop  offset="0.4827" style="stop-color:#FFD200;stop-opacity:0.7"/>
		<stop  offset="0.8565" style="stop-color:#FFD200;stop-opacity:0"/>
	</radialGradient>
	<path fill="url(#SVGID_29_)" d="M130.043,69.148c0,0,3.751,4.034,5.527,7.892c1.778,3.859,2.326,8.229,2.326,8.229
		s0.264-3.677-1.763-9.848c-2.201-6.707-6.53-12.426-10.8-15.589c-2.891-2.144-8.643-5.021-8.643-5.021
		S126.624,60.701,130.043,69.148z"/>
	<radialGradient id="SVGID_30_" cx="87.5886" cy="65.299" r="54.941" gradientUnits="userSpaceOnUse">
		<stop  offset="0" style="stop-color:#E75C0E"/>
		<stop  offset="1" style="stop-color:#F39400"/>
	</radialGradient>
	<path opacity="0.1" fill="url(#SVGID_30_)" d="M75.793,68.28c0.047-0.004-1.843,0.223-5.218,3.176
		c-1.432,1.174-2.582,2.313-3.48,3.316c-2.445,2.965-3.886,5.829-3.886,5.829s0.221-1.771,1.324-4.23
		c-3.563,5.64-4.924,13.83-4.924,13.83s-0.185-3.72,0.763-8.1c-0.366,1.018-0.815,2.442-1.051,4.358c-0.709,5.724,0,10.77,0,10.77
		s-0.31-1.097-0.659-2.67c0.12,1.147,0.306,2.506,0.625,4.038c1.134,5.431,3.245,10.56,3.245,10.56s-2.61-3.528-4.329-8.891
		c0.323,1.649,0.798,3.689,1.495,6.12c2.128,7.429,4.973,11.299,4.973,11.299s-2.192-1.934-5.028-9.09
		c-1.259-3.178-1.91-6.216-2.321-8.445c-0.234-1.639-0.434-3.161-0.645-5.35c-0.073-0.764-0.188-1.637-0.193-2.385
		c-0.618,2.968-1.011,5.497-1.011,5.497s0.154-5.933,1.131-11.317c0.148-0.804,0.344-1.572,0.575-2.304
		c-0.919,1.776-1.631,3.235-1.631,3.235s1.188-3.339,2.348-6.13c-1.136,2.072-1.82,3.767-1.82,3.767s2.002-6.884,4.417-10.353
		c1.302-1.872,2.609-3.152,3.539-3.939c0.313-0.305,0.634-0.59,0.963-0.845c0.351-0.27,0.693-0.518,1.022-0.745
		c0.167-0.128,0.34-0.256,0.524-0.381c3.236-2.39,6.698-2.964,7.878-2.835c0.037,0-1.028,0.063-3.252,1.24
		c1.092-0.382,1.979-0.521,2.503-0.492c0.032-0.001-0.785,0.182-2.623,1.385c2.407-1.177,4.592-1.481,5.482-1.385
		c0.045,0-1.688,0.095-5.346,2.485c-0.104,0.067-0.203,0.134-0.304,0.201c0.002,0,0.002,0,0.004,0
		C73.012,68.513,74.992,68.26,75.793,68.28z M65.543,88.891c0-0.003,0.001-0.004,0.002-0.004 M65.543,88.891
		c-0.647,0.302-1.419,2.824-0.809,8.485c0.495,4.602,2.416,7.055,2.416,7.055s-0.981-1.844-1.592-8.221
		C65.036,90.739,65.479,88.974,65.543,88.891z M67.324,84.519c-0.899,4.639,0.304,11.19,0.304,11.19s-0.199-5.494,0.982-11.206
		c1.261-6.107,3.138-7.888,3.166-7.856C70.762,76.754,68.225,79.878,67.324,84.519z M69.732,72.846
		c-0.54,0.575-1.007,1.206-1.412,1.861c-1.457,1.432-3.14,4.273-3.953,8.216c-1.574,7.651-0.443,12.252-0.443,12.252
		s-0.022-7.059,1.634-13.122c0.236-0.858,0.481-1.633,0.735-2.335c-0.423,1.727-0.509,2.986-0.509,2.986s1.367-5.576,6.149-10.357
		c3.015-3.014,5.065-3.611,5.093-3.599C74.779,69.028,71.976,70.461,69.732,72.846z M67.995,89.221
		c-0.312,3.384,0.28,6.886,0.28,6.886s-0.051-3.513,0.401-7.492c0.445-3.935,1.032-5.438,1.063-5.429
		C69.005,83.6,68.218,86.767,67.995,89.221z M68.355,77.715c-1.529,2.649-2.064,5.28-2.064,5.28s1.924-4.378,3.252-6.288
		c1.33-1.91,2.635-3.149,2.626-3.141C71.37,73.938,69.663,75.15,68.355,77.715z M61.484,87.574c0.002,0,0.003,0,0.005-0.001
		 M61.484,87.574c-0.662,0.262-1.594,2.731-1.342,8.419c0.207,4.622,1.971,7.191,1.971,7.191s-0.867-1.901-1.073-8.303
		 M88.546,61.534c0,0-3.157,1.157-4.937,3.416c-1.783,2.258-2.11,4.613-2.11,4.613S83.476,64.34,88.546,61.534z M86.328,64.44
		c-2.276,2.986-2.812,5.167-2.812,5.167s2.537-5.963,8.9-8.52C92.416,61.086,88.601,61.452,86.328,64.44z M63.515,63.938
		c0.382-3.491,1.385-5.543,1.385-5.543s-3.268,4.938-1.296,10.96C63.605,69.356,63.136,67.429,63.515,63.938z M65.964,68.126
		c0,0-0.739-1.603-1.027-4.598c-0.289-2.996,0.205-4.817,0.205-4.817S63.223,63.16,65.964,68.126z"/>
	
		<radialGradient id="SVGID_31_" cx="-2192.5828" cy="-3189.5525" r="14.0476" gradientTransform="matrix(-0.2756 0.9504 -0.6431 -0.1776 -2547.9939 1618.7108)" gradientUnits="userSpaceOnUse">
		<stop  offset="0" style="stop-color:#FFFFFF"/>
		<stop  offset="0.0435" style="stop-color:#FFFAD5;stop-opacity:0.9389"/>
		<stop  offset="0.1152" style="stop-color:#FFF395;stop-opacity:0.8382"/>
		<stop  offset="0.1837" style="stop-color:#FFEE60;stop-opacity:0.7419"/>
		<stop  offset="0.2472" style="stop-color:#FFE936;stop-opacity:0.6527"/>
		<stop  offset="0.3045" style="stop-color:#FFE619;stop-opacity:0.5723"/>
		<stop  offset="0.3536" style="stop-color:#FFE406;stop-opacity:0.5033"/>
		<stop  offset="0.3888" style="stop-color:#FFE300;stop-opacity:0.4538"/>
		<stop  offset="0.8092" style="stop-color:#FFE200;stop-opacity:0"/>
	</radialGradient>
	<path opacity="0.5" fill="url(#SVGID_31_)" d="M108.97,100.463c-0.47-0.637-2.493-2.109-4.759-2.266
		c-3.013-0.207-5.47,1.089-5.47,1.089s1.669-0.959,5.522-0.615C106.901,98.906,108.936,100.39,108.97,100.463z"/>
	
		<radialGradient id="SVGID_32_" cx="-2332.2522" cy="-3089.6653" r="14.6393" gradientTransform="matrix(-0.3166 0.8278 -0.6529 -0.2379 -2647.4402 1298.345)" gradientUnits="userSpaceOnUse">
		<stop  offset="0" style="stop-color:#FFFFFF"/>
		<stop  offset="0.0435" style="stop-color:#FFFAD5;stop-opacity:0.9389"/>
		<stop  offset="0.1152" style="stop-color:#FFF395;stop-opacity:0.8382"/>
		<stop  offset="0.1837" style="stop-color:#FFEE60;stop-opacity:0.7419"/>
		<stop  offset="0.2472" style="stop-color:#FFE936;stop-opacity:0.6527"/>
		<stop  offset="0.3045" style="stop-color:#FFE619;stop-opacity:0.5723"/>
		<stop  offset="0.3536" style="stop-color:#FFE406;stop-opacity:0.5033"/>
		<stop  offset="0.3888" style="stop-color:#FFE300;stop-opacity:0.4538"/>
		<stop  offset="0.8092" style="stop-color:#FFE200;stop-opacity:0"/>
	</radialGradient>
	<path opacity="0.5" fill="url(#SVGID_32_)" d="M109.975,101.672c-0.475-0.656-2.193-2.17-4.954-2.708
		c-3.508-0.682-6.114,0.804-6.114,0.804s2.002-0.844,6.076-0.177C107.785,100.048,109.939,101.599,109.975,101.672z"/>
	
		<radialGradient id="SVGID_33_" cx="-2521.5994" cy="-3533.791" r="10.9787" gradientTransform="matrix(-0.2345 0.5201 -0.5377 -0.2307 -2383.6709 598.6763)" gradientUnits="userSpaceOnUse">
		<stop  offset="0" style="stop-color:#FFFFFF"/>
		<stop  offset="0.0435" style="stop-color:#FFFAD5;stop-opacity:0.9389"/>
		<stop  offset="0.1152" style="stop-color:#FFF395;stop-opacity:0.8382"/>
		<stop  offset="0.1837" style="stop-color:#FFEE60;stop-opacity:0.7419"/>
		<stop  offset="0.2472" style="stop-color:#FFE936;stop-opacity:0.6527"/>
		<stop  offset="0.3045" style="stop-color:#FFE619;stop-opacity:0.5723"/>
		<stop  offset="0.3536" style="stop-color:#FFE406;stop-opacity:0.5033"/>
		<stop  offset="0.3888" style="stop-color:#FFE300;stop-opacity:0.4538"/>
		<stop  offset="0.8092" style="stop-color:#FFE200;stop-opacity:0"/>
	</radialGradient>
	<path opacity="0.5" fill="url(#SVGID_33_)" d="M108.992,101.685c-0.384-0.372-1.282-0.995-2.814-1.423
		c-2.483-0.694-4.154-0.047-4.154-0.047s0.99-0.228,3.52,0.26C107.121,100.779,108.973,101.65,108.992,101.685z"/>
	<linearGradient id="SVGID_34_" gradientUnits="userSpaceOnUse" x1="97.7261" y1="89.2671" x2="97.7261" y2="139.0391">
		<stop  offset="0" style="stop-color:#E4790F"/>
		<stop  offset="0.5" style="stop-color:#D94A14"/>
		<stop  offset="0.6464" style="stop-color:#C23019"/>
		<stop  offset="0.75" style="stop-color:#B01B1D"/>
		<stop  offset="0.8408" style="stop-color:#A81A1B"/>
		<stop  offset="0.9841" style="stop-color:#911715"/>
		<stop  offset="1" style="stop-color:#8E1714"/>
	</linearGradient>
	<path fill="url(#SVGID_34_)" d="M140.814,116.209c-0.494,0.949-1.143,1.945-2.016,3.002c-2.118,2.612-4.764,4.66-6.964,6.154
		c-0.892,0.606-1.759,1.113-2.604,1.552l-0.02-0.317c0,0-0.006,0.004-0.017,0.009c0,0,0,0,0-0.001
		c2.527-1.317,5.267-3.133,8.081-5.902C138.928,119.078,140.041,117.593,140.814,116.209z M63.27,61.091
		c0.095-0.226,0.187-0.472,0.318-0.886c0.153-0.481,0.323-0.888,0.496-1.236c-0.242,0.419-0.488,0.949-0.702,1.621
		c-0.041,0.129-0.078,0.241-0.113,0.342C63.263,61.04,63.26,61.115,63.27,61.091z M90.452,135.541c0,0,0.358,0.333,1.002,0.746
		c2.388,0.678,7.852,2.065,12.12,1.905c-0.53-0.091-0.931-0.233-1.234-0.385C96.929,137.622,90.452,135.541,90.452,135.541z
		 M57.149,84.76c-0.123,0.22-0.24,0.438-0.353,0.652c0.015-0.028,0.03-0.057,0.046-0.085c-1.082,3.4-1.917,8.635-1.416,16.427
		c0.004-0.049,0.015-0.16,0.034-0.323c0.006,0.093,0.011,0.185,0.017,0.279c0.009-0.114,0.057-0.551,0.157-1.229
		C55.238,93.043,56.081,88.027,57.149,84.76z M62.155,115.099c-4.094-7.007-5.341-13.469-5.628-18.725
		c-0.064,0.292-0.123,0.573-0.179,0.846c0.334,5.171,1.625,11.46,5.6,18.263c3.119,5.344,11.341,17.757,31.97,22.402
		c-0.946-0.272-1.739-0.658-2.345-1.016C72.811,131.817,65.142,120.217,62.155,115.099z M128.349,128.594
		c0.075-0.077,0.221-0.241,0.223-0.244c-6.912,9.43-26.905,8.3-26.905,8.3s0.077,0.182,0.33,0.407
		c2.85,0.087,16.376,0.169,23.793-5.686c1.839-1.385,3.057-2.987,3.44-4.454c0,0-0.035,0.019-0.105,0.053
		C128.972,127.597,128.641,128.177,128.349,128.594z M59.016,76.281c-1.512,2.584-3.116,6.843-4.377,13.959
		c0,0,0.033-0.103,0.097-0.288c-0.016,0.086-0.031,0.171-0.047,0.259c0,0,0.094-0.296,0.28-0.796
		c1.106-6.068,2.46-10.007,3.784-12.588C58.817,76.678,58.906,76.492,59.016,76.281z M62.294,62.819
		c0.064-0.495,0.224-0.735,0.322-1.13c0.028-0.112,0.07-0.221,0.117-0.327c-0.132,0.214-0.26,0.455-0.324,0.712
		c-0.042,0.168-0.095,0.308-0.147,0.451c0.008,0.117,0.012,0.261,0.018,0.325C62.287,62.839,62.29,62.83,62.294,62.819z
		 M60.867,73.335c0.009-0.224-0.031-0.465-0.029-0.716c-0.219-3.075,0.149-5.498,0.507-7.272c0.202-0.922,0.445-1.756,0.708-2.506
		c-0.006-0.055-0.012-0.095-0.02-0.098c-0.004-0.008-0.009-0.007-0.014,0.006c-0.053,0.139-0.105,0.283-0.156,0.429
		c-0.01,0.029-0.02,0.059-0.031,0.088c-0.024,0.068-0.047,0.135-0.07,0.203c-0.081,0.237-0.157,0.478-0.228,0.722
		c-0.114,0.385-0.221,0.789-0.321,1.212c-0.011,0.049-0.023,0.099-0.033,0.148c-0.014,0.06-0.029,0.12-0.042,0.181
		c-0.006,0.03-0.012,0.062-0.018,0.093c-0.176,0.814-0.318,1.698-0.412,2.653c-0.303,2.664-0.23,4.905-0.113,5.239
		C60.683,73.591,60.773,73.464,60.867,73.335z M129.194,126.609c-0.159,0.083-1.462,0.758-3.603,1.647
		c-4.01,1.666-6.789,2.949-7.026,3.393c0,0,1.048-0.714,4.625-2.128c3.731-1.475,5.509-2.338,5.936-2.551
		c0.07-0.035,0.105-0.053,0.105-0.053l-0.02-0.317C129.211,126.6,129.205,126.604,129.194,126.609z"/>
	
		<radialGradient id="SVGID_35_" cx="1607.5623" cy="-4201.8208" r="29.0927" gradientTransform="matrix(0.0279 -0.9996 0.9996 0.0279 4238.0659 1851.5348)" gradientUnits="userSpaceOnUse">
		<stop  offset="0" style="stop-color:#E75C0E"/>
		<stop  offset="1" style="stop-color:#F39400"/>
	</radialGradient>
	<path opacity="0.1" fill="url(#SVGID_35_)" d="M94.881,132.614c-0.002,0-0.003-0.001-0.003-0.003 M94.882,132.361
		c0.263,0.664,2.734,1.586,8.421,1.319c4.623-0.217,7.188-1.986,7.188-1.986s-1.9,0.868-8.302,1.093
		C96.697,132.979,94.962,132.431,94.882,132.361z M91.401,130.583c4.612,1.027,10.354,0.136,10.354,0.136s-5.498,0.045-11.175-1.294
		c-6.07-1.431-7.797-3.357-7.764-3.384C82.895,127.057,86.787,129.553,91.401,130.583z M95.28,130.172
		c3.373,0.407,6.891-0.088,6.891-0.088s-3.513-0.047-7.478-0.61c-3.921-0.554-5.407-1.183-5.397-1.214
		C89.688,129.005,92.833,129.88,95.28,130.172z M83.868,129.54c2.741,1.358,5.401,1.726,5.401,1.726s-4.491-1.643-6.482-2.847
		c-1.99-1.207-3.597-2.245-3.642-2.339C79.567,126.853,81.225,128.397,83.868,129.54z M93.451,136.634c0-0.002,0-0.003,0-0.005"/>
	
		<radialGradient id="SVGID_36_" cx="74.3122" cy="70.5963" r="11.4533" gradientTransform="matrix(0.9569 0.2903 -0.1939 0.6392 16.887 3.8991)" gradientUnits="userSpaceOnUse">
		<stop  offset="0.4869" style="stop-color:#E4790F;stop-opacity:0"/>
		<stop  offset="0.8527" style="stop-color:#F1BF00"/>
	</radialGradient>
	<path fill="url(#SVGID_36_)" d="M80.931,66.143c0,0-0.701,0.846-1.233,1.668c-0.594,0.918-1.105,1.889-1.105,1.889
		s-2.967-2.185-5.621-2.629c-2.654-0.444-3.44-0.372-3.44-0.372S73.968,64.402,80.931,66.143z"/>
</g>
</svg>
