<?xml version="1.0" encoding="utf-8"?>
<!-- Generator: Adobe Illustrator 17.0.0, SVG Export Plug-In . SVG Version: 6.00 Build 0)  -->
<!DOCTYPE svg PUBLIC "-//W3C//DTD SVG 1.1//EN" "http://www.w3.org/Graphics/SVG/1.1/DTD/svg11.dtd">
<svg version="1.1" id="Layer_1" xmlns="http://www.w3.org/2000/svg" xmlns:xlink="http://www.w3.org/1999/xlink" x="0px" y="0px"
	 width="10.488px" height="5.203px" viewBox="0 0 10.488 5.203" enable-background="new 0 0 10.488 5.203" xml:space="preserve">
<g>
	<g>
		<path fill="#FFFFFF" d="M2.602,0C1.167,0,0,1.167,0,2.602s1.167,2.602,2.602,2.602c1.435,0,2.602-1.167,2.602-2.602
			S4.036,0,2.602,0z M2.602,5.124c-1.391,0-2.522-1.132-2.522-2.522s1.132-2.522,2.522-2.522c1.391,0,2.522,1.132,2.522,2.522
			S3.993,5.124,2.602,5.124z"/>
		<polygon fill="#FFFFFF" points="2.879,1.237 2.324,1.237 2.324,2.324 1.237,2.324 1.237,2.879 2.324,2.879 2.324,3.966 
			2.879,3.966 2.879,2.879 3.966,2.879 3.966,2.324 2.879,2.324 		"/>
	</g>
	<path fill="#FFFFFF" d="M7.886,0C6.452,0,5.285,1.167,5.285,2.602s1.167,2.602,2.602,2.602c1.435,0,2.602-1.167,2.602-2.602
		S9.321,0,7.886,0z M9.251,2.879H8.164v1.087H7.609V2.879H6.522V2.324h1.087V1.237h0.555v1.087h1.087V2.879z"/>
</g>
</svg>
