<?xml version="1.0" encoding="utf-8"?>
<!-- Generator: Adobe Illustrator 17.0.0, SVG Export Plug-In . SVG Version: 6.00 Build 0)  -->
<!DOCTYPE svg PUBLIC "-//W3C//DTD SVG 1.1//EN" "http://www.w3.org/Graphics/SVG/1.1/DTD/svg11.dtd">
<svg version="1.1" id="Layer_1" xmlns="http://www.w3.org/2000/svg" xmlns:xlink="http://www.w3.org/1999/xlink" x="0px" y="0px"
	 width="10.488px" height="5.203px" viewBox="0 0 10.488 5.203" enable-background="new 0 0 10.488 5.203" xml:space="preserve">
<g>
	<path fill="#FFFFFF" d="M2.602,5.203C1.167,5.203,0,4.036,0,2.602C0,1.167,1.167,0,2.602,0s2.602,1.167,2.602,2.602
		C5.203,4.036,4.036,5.203,2.602,5.203z M2.602,0.079c-1.391,0-2.522,1.132-2.522,2.522c0,1.391,1.132,2.522,2.522,2.522
		s2.522-1.132,2.522-2.522C5.124,1.211,3.993,0.079,2.602,0.079z"/>
	<polygon fill="#FFFFFF" points="2.217,4.085 1.824,3.693 2.949,2.568 1.891,1.511 2.284,1.118 3.733,2.568 	"/>
</g>
<path fill="#FFFFFF" d="M7.886,0C6.452,0,5.285,1.167,5.285,2.602s1.167,2.602,2.602,2.602s2.602-1.167,2.602-2.602S9.321,0,7.886,0
	z M7.501,4.085L7.109,3.693l1.125-1.125L7.176,1.511l0.392-0.392l1.45,1.45L7.501,4.085z"/>
</svg>
