<?xml version="1.0" encoding="utf-8"?>
<!-- Generator: Adobe Illustrator 17.0.0, SVG Export Plug-In . SVG Version: 6.00 Build 0)  -->
<!DOCTYPE svg PUBLIC "-//W3C//DTD SVG 1.1//EN" "http://www.w3.org/Graphics/SVG/1.1/DTD/svg11.dtd">
<svg version="1.1" id="Layer_1" xmlns="http://www.w3.org/2000/svg" xmlns:xlink="http://www.w3.org/1999/xlink" x="0px" y="0px"
	 width="348.639px" height="39px" viewBox="0 0 348.639 39" enable-background="new 0 0 348.639 39" xml:space="preserve">
<g>
	<g>
		<path fill="#FFFFFF" d="M72.498,28.803V11.664h11.545c2.134,0,3.673,0.401,4.608,1.21c0.939,0.811,1.405,2.167,1.405,4.08
			c0,1.862-0.448,3.128-1.347,3.785c-0.89,0.664-2.441,0.989-4.647,0.989h-9.792v7.076H72.498z M74.271,20.002h10.316
			c1.443,0,2.406-0.181,2.88-0.548c0.545-0.409,0.818-1.244,0.818-2.501c0-1.3-0.266-2.222-0.805-2.755
			c-0.538-0.54-1.44-0.806-2.723-0.806H74.271V20.002z"/>
		<path fill="#FFFFFF" d="M94.3,28.803h-1.773V16.644H94.3v1.581c0.196-0.361,0.396-0.627,0.586-0.794
			c0.631-0.52,1.518-0.787,2.67-0.787h3.451c1.579,0,2.815,0.385,3.702,1.152c0.992,0.856,1.478,1.991,1.478,3.419v0.337h-1.77
			v-0.145c0-0.717-0.175-1.347-0.519-1.887c-0.611-0.928-1.629-1.387-3.06-1.387h-3.154c-0.959,0-1.758,0.276-2.41,0.845
			c-0.65,0.565-0.974,1.235-0.974,2.001V28.803z"/>
		<path fill="#FFFFFF" d="M108.883,21.355c0-1.474,0.401-2.619,1.21-3.433c0.903-0.902,2.271-1.352,4.117-1.352h4.883
			c1.889,0,3.28,0.479,4.166,1.436c0.774,0.814,1.162,1.935,1.162,3.349v2.663c0,1.417-0.398,2.543-1.184,3.383
			c-0.922,0.97-2.307,1.459-4.144,1.459h-4.883c-1.795,0-3.129-0.411-4.01-1.228c-0.882-0.81-1.317-2.019-1.317-3.615v-1.328V21.355
			z M110.654,24.019c0,2.237,1.225,3.359,3.681,3.359h4.63c1.152,0,2.058-0.274,2.707-0.831c0.648-0.546,0.974-1.389,0.974-2.527
			v-2.663c0-1.068-0.321-1.885-0.955-2.454c-0.629-0.562-1.539-0.85-2.725-0.85h-4.63c-1.236,0-2.156,0.266-2.765,0.792
			c-0.609,0.528-0.916,1.363-0.916,2.512V24.019z"/>
		<path fill="#FFFFFF" d="M127.476,18.006h-1.527v-1.484h1.527v-0.297c0-1.535,0.378-2.68,1.125-3.433
			c0.746-0.751,1.84-1.129,3.27-1.129h2.559v1.53h-2.559c-0.876,0-1.532,0.247-1.964,0.728c-0.436,0.494-0.654,1.272-0.654,2.351
			v0.249h5.228v1.484h-5.228v10.796h-1.778V18.006z"/>
		<path fill="#FFFFFF" d="M136.21,21.355c0-1.474,0.405-2.619,1.207-3.433c0.908-0.902,2.278-1.352,4.123-1.352h4.886
			c1.888,0,3.278,0.479,4.164,1.436c0.78,0.814,1.158,1.935,1.158,3.349v2.663c0,1.417-0.393,2.543-1.184,3.383
			c-0.918,0.97-2.303,1.459-4.138,1.459h-4.886c-1.796,0-3.133-0.411-4.01-1.228c-0.881-0.81-1.319-2.019-1.319-3.615v-1.328V21.355
			z M137.985,24.019c0,2.237,1.225,3.359,3.676,3.359h4.636c1.153,0,2.052-0.274,2.704-0.831c0.649-0.546,0.971-1.389,0.971-2.527
			v-2.663c0-1.068-0.312-1.885-0.946-2.454c-0.639-0.562-1.545-0.85-2.729-0.85h-4.636c-1.233,0-2.151,0.266-2.763,0.792
			c-0.606,0.528-0.913,1.363-0.913,2.512V24.019z"/>
		<path fill="#FFFFFF" d="M156.086,28.803h-1.77V16.644h1.77v1.581c0.201-0.361,0.401-0.627,0.593-0.794
			c0.627-0.52,1.518-0.787,2.665-0.787h3.454c1.573,0,2.812,0.385,3.699,1.152c0.984,0.856,1.482,1.991,1.482,3.419v0.337h-1.777
			v-0.145c0-0.717-0.172-1.347-0.519-1.887c-0.605-0.928-1.632-1.387-3.06-1.387h-3.152c-0.955,0-1.754,0.276-2.412,0.845
			c-0.644,0.565-0.974,1.235-0.974,2.001V28.803z"/>
		<path fill="#FFFFFF" d="M172.593,21.324v7.479h-1.779V16.644h1.779v1.879c0.248-0.429,0.494-0.741,0.738-0.939
			c0.756-0.624,1.796-0.94,3.114-0.94h2.423c1.423,0,2.521,0.247,3.313,0.736c0.46,0.55,0.925,1.105,1.384,1.659
			c0.192-0.536,0.427-0.934,0.694-1.195c0.823-0.802,2.13-1.199,3.905-1.199h2.768c1.664,0,2.982,0.424,3.962,1.252
			c0.919,0.793,1.376,1.786,1.376,2.982v7.925h-1.779v-7.578c0-0.984-0.344-1.747-1.034-2.288c-0.686-0.54-1.672-0.804-2.953-0.804
			h-1.829c-1.36,0-2.411,0.264-3.147,0.816c-0.73,0.551-1.096,1.391-1.096,2.522v7.331h-1.778v-7.38
			c0-1.083-0.353-1.903-1.073-2.459c-0.717-0.557-1.665-0.831-2.872-0.831h-1.925c-1.396,0-2.476,0.347-3.232,1.049
			C172.908,19.772,172.593,20.492,172.593,21.324z"/>
		<path fill="#FFFFFF" d="M198.613,24.219c0-0.871,0.3-1.553,0.893-2.048c0.655-0.545,1.639-0.816,2.929-0.816h7.126
			c0.857,0,1.482,0.157,1.884,0.469c0.126,0.1,0.242,0.268,0.343,0.493v-1.665c0-0.738-0.222-1.323-0.67-1.772
			c-0.525-0.498-1.298-0.748-2.302-0.748h-4.739c-1.257,0-2.136,0.258-2.646,0.782c-0.171,0.162-0.296,0.429-0.373,0.79v0.442
			h-1.826v-0.442c-0.18-0.71,0.178-1.417,1.085-2.121c0.794-0.624,1.888-0.94,3.306-0.94h5.352c1.597,0,2.766,0.377,3.529,1.134
			c0.701,0.707,1.063,1.757,1.063,3.149v7.877h-1.78v-0.982c-0.198,0.233-0.373,0.389-0.523,0.494
			c-0.474,0.331-1.027,0.488-1.651,0.488h-6.902c-1.349,0-2.369-0.249-3.066-0.749c-0.685-0.502-1.033-1.285-1.033-2.356V24.219z
			 M203.072,22.84c-1.078,0-1.79,0.138-2.151,0.401c-0.358,0.271-0.528,0.735-0.528,1.37v0.893c0,0.591,0.17,1.017,0.523,1.278
			c0.426,0.332,1.143,0.492,2.156,0.492h6.036c1.789,0,2.68-0.741,2.68-2.218c0-0.758-0.222-1.317-0.67-1.681
			c-0.439-0.358-1.115-0.536-2.009-0.536H203.072z"/>
		<path fill="#FFFFFF" d="M226.165,21.779v7.024h-1.768V11.714h12.324c2.073,0,3.61,0.461,4.617,1.38
			c0.903,0.824,1.358,1.997,1.358,3.526c0,1.153-0.258,2.069-0.767,2.765c-0.332,0.46-0.875,0.912-1.649,1.353
			c0.605,0.136,1.1,0.518,1.477,1.161c0.446,0.745,0.665,1.708,0.665,2.911v3.993h-1.778v-4.191c0-1.036-0.214-1.765-0.638-2.194
			c-0.431-0.429-1.109-0.639-2.04-0.639H226.165z M226.165,13.44v6.612h11.101c1.186,0,2.07-0.269,2.667-0.814
			c0.652-0.607,0.984-1.592,0.984-2.937c0-0.84-0.317-1.524-0.949-2.064c-0.632-0.529-1.492-0.797-2.58-0.797H226.165z"/>
		<path fill="#FFFFFF" d="M256.46,28.861h-5.971c-3.484,0-5.225-1.532-5.225-4.59v-3.216c0-1.191,0.443-2.22,1.327-3.08
			c0.969-0.939,2.257-1.405,3.855-1.405h5.128c1.681,0,2.981,0.429,3.92,1.286c0.875,0.79,1.308,1.793,1.308,3.005v1.978h-13.765
			v1.178c0,1.189,0.327,2.059,0.964,2.618c0.561,0.494,1.363,0.741,2.419,0.741h5.793c0.94,0,1.646-0.211,2.102-0.632
			c0.474-0.416,0.714-0.949,0.714-1.588v-0.247h1.773v0.247c0,0.939-0.311,1.743-0.916,2.418
			C259.115,28.43,257.97,28.861,256.46,28.861z M259.028,21.355c0-1.02-0.292-1.822-0.863-2.413
			c-0.58-0.588-1.385-0.891-2.424-0.891h-5.571c-0.937,0-1.69,0.302-2.266,0.891c-0.581,0.591-0.867,1.394-0.867,2.413H259.028z"/>
		<path fill="#FFFFFF" d="M273.358,27.377c1.348,0,2.309-0.356,2.888-1.063c0.357-0.443,0.543-0.964,0.543-1.552v-0.249h1.771v0.199
			c0,0.902-0.246,1.698-0.741,2.372c-0.857,1.181-2.312,1.776-4.389,1.776h-5.472c-1.663,0-2.898-0.405-3.719-1.202
			c-0.811-0.797-1.22-1.912-1.22-3.337v-3.066c0-1.391,0.414-2.505,1.233-3.334c0.893-0.902,2.177-1.352,3.849-1.352h5.329h0.053
			c1.555,0,2.777,0.354,3.646,1.062c0.951,0.774,1.431,1.771,1.431,2.987v0.196h-1.771V20.67c0-0.825-0.295-1.472-0.888-1.928
			c-0.593-0.46-1.42-0.691-2.47-0.691H268.1c-1.055,0-1.863,0.274-2.438,0.813c-0.579,0.545-0.865,1.342-0.865,2.392v3.066
			c0,0.951,0.308,1.695,0.911,2.24c0.613,0.545,1.364,0.815,2.272,0.815H273.358z"/>
		<path fill="#FFFFFF" d="M280.684,21.355c0-1.474,0.406-2.619,1.203-3.433c0.906-0.902,2.286-1.352,4.122-1.352h4.882
			c1.889,0,3.283,0.479,4.17,1.436c0.774,0.814,1.16,1.935,1.16,3.349v2.663c0,1.417-0.393,2.543-1.184,3.383
			c-0.922,0.97-2.299,1.459-4.145,1.459h-4.882c-1.79,0-3.132-0.411-4.005-1.228c-0.888-0.81-1.319-2.019-1.319-3.615v-1.328V21.355
			z M282.456,24.019c0,2.237,1.223,3.359,3.678,3.359h4.642c1.14,0,2.04-0.274,2.695-0.831c0.65-0.546,0.979-1.389,0.979-2.527
			v-2.663c0-1.068-0.32-1.885-0.953-2.454c-0.634-0.562-1.547-0.85-2.721-0.85h-4.642c-1.233,0-2.149,0.266-2.763,0.792
			c-0.607,0.528-0.916,1.363-0.916,2.512V24.019z"/>
		<path fill="#FFFFFF" d="M300.554,28.803h-1.767V16.644h1.767v1.581c0.204-0.361,0.403-0.627,0.592-0.794
			c0.627-0.52,1.518-0.787,2.67-0.787h3.455c1.578,0,2.813,0.385,3.697,1.152c0.986,0.856,1.479,1.991,1.479,3.419v0.337h-1.772
			v-0.145c0-0.717-0.18-1.347-0.518-1.887c-0.613-0.928-1.629-1.387-3.061-1.387h-3.154c-0.96,0-1.76,0.276-2.407,0.845
			c-0.644,0.565-0.981,1.235-0.981,2.001V28.803z"/>
		<path fill="#FFFFFF" d="M325.239,28.861h-4.804c-3.467,0-5.201-1.617-5.201-4.843v-1.328v-1.335c0-1.441,0.421-2.59,1.266-3.433
			c0.913-0.902,2.223-1.352,3.935-1.352h4.804c1.104,0,2.03,0.233,2.774,0.695c0.248,0.146,0.517,0.375,0.788,0.689v-6.291h1.731
			v17.197H328.8V27.62c-0.362,0.28-0.668,0.486-0.933,0.622C327.057,28.651,326.178,28.861,325.239,28.861z M328.8,24.019v-2.663
			c0-0.97-0.306-1.748-0.933-2.34c-0.685-0.645-1.656-0.964-2.915-0.964h-3.939c-1.399,0-2.416,0.276-3.048,0.828
			c-0.632,0.548-0.951,1.373-0.951,2.476v2.663c0,1.139,0.326,1.971,0.968,2.506c0.657,0.539,1.666,0.804,3.031,0.804h3.939
			c1.274,0,2.23-0.305,2.874-0.898C328.481,25.822,328.8,25.026,328.8,24.019z"/>
		<path fill="#FFFFFF" d="M334.975,24.911v0.689c0,0.595,0.154,1.007,0.473,1.257c0.424,0.344,1.236,0.52,2.422,0.52h6.288
			c1.805,0,2.704-0.574,2.704-1.726v-0.548c0-0.538-0.201-0.966-0.613-1.269c-0.391-0.305-0.971-0.458-1.717-0.458h-7.127
			c-1.37,0-2.402-0.242-3.112-0.733c-0.695-0.498-1.048-1.307-1.048-2.424v-0.492c0-0.907,0.346-1.633,1.039-2.198
			c0.784-0.639,1.888-0.959,3.299-0.959h5.768c2.032,0,3.471,0.33,4.319,0.989c0.649,0.492,0.969,1.167,0.969,2.027v0.832h-1.776
			v-0.789c0-0.375-0.175-0.688-0.518-0.94c-0.593-0.422-1.575-0.638-2.937-0.638h-6.116c-1.55,0-2.317,0.561-2.317,1.676v0.492
			c0,1.117,0.774,1.68,2.324,1.68h7.136c1.363,0,2.413,0.263,3.127,0.792c0.717,0.523,1.078,1.328,1.078,2.413v0.548
			c0,0.902-0.348,1.644-1.041,2.213c-0.789,0.665-1.903,0.997-3.354,0.997h-6.753c-1.601,0-2.74-0.312-3.433-0.94
			c-0.548-0.491-0.814-1.203-0.814-2.125v-0.886H334.975z"/>
	</g>
	<g>
		<g>
			<g>
				<g>
					<g>
						<path fill="#FFFFFF" d="M61.816,9.971c2.744,3.075,5.003,8.457,3.205,13.791c-0.899,2.649-3.063,5.299-5.003,6.99
							C47.351,41.858,15.713,42.153,3.886,29.155c-3.134-3.442-5.287-8.906-2.803-14.784C5.175,4.696,18.008,0.544,31.455-0.023
							C43.342-0.52,56.021,3.49,61.816,9.971z M53.029,20.959c3.548-1.94,4.116-7.806,0.603-9.982
							c-4.459-0.911-9.225,0.154-14.382-0.402c-7.144-0.781-14.536-0.473-21.183,0.591c-0.26-0.733-1.254-0.603-1.798-0.591
							c-4.104,0.083-9.734,4.187-8.788,8.989c0.449,2.283,2.543,3.229,5.192,3.193c3.69-0.047,6.824-2.318,8.989-4.199
							c-0.201,3.915-1.147,8.847-0.994,12.987c6.742-0.189,13.602-1.892,20.769-1.999c-0.047,0.863-0.095,1.703,0.804,1.609
							c0.733-0.201,0.225-1.644,0.994-1.798c1.171,0.166,2.235,0.426,3.205,0.792c0.059-0.473,0.686-0.367,0.591-0.994
							c-0.745-0.994-2.839-0.627-4.187-1.005c0-3.939-0.343-7.51-0.201-11.591c-0.012-0.319-0.556-0.106-0.603-0.39
							c-0.059-0.863,0.946-0.662,1.005-1.407c-0.52-0.071-0.603-0.591-1.206-0.591c-0.934,3.276-0.059,11.567-0.402,14.181
							c-2.235-0.154-3.182,0.378-4.388,0c-0.26-3.702,1.691-9.438-0.201-11.39c-0.402,4.589-0.71,7.321-0.804,11.792
							c-2.034,0.532-5.878,0.568-6.99,0.792c-0.248-4.719,0.438-9.355,0.201-13.779c-0.024,0.248-0.059,0.473-0.402,0.402
							c-0.047-0.958,0.319-1.502,0.603-0.603c-0.035-0.568,0.166-1.372-0.402-1.396c-1.254,4.447-1.348,9.781-0.994,15.376
							c-2.224,0.686-4.494,1.254-6.198,0.201c0.024-5.429,1.443-10.491,0.994-14.985c0.615-0.662,0.201,0.875,0.804,0.201
							c0.142-0.662-0.331-0.721-0.804-0.792c-0.757,0.556-0.603,2.685-0.792,3.193c-0.532-0.899-2.697-2.448-3.394-0.804
							c0.615,0.591,1.313,0.248,2.188,0.804c0.26,0.497-0.58,0.828,0,1.005c0.308-0.13,0.84-1.017,1.005-0.603
							c-0.272,0.509-1.183,1.431-1.597,0.603c-0.012,0.343,0.047,0.615,0.201,0.792c-1.419,0.485-2.626,1.029-2.803,1.798
							c-0.946-0.639-2.082,1.36-2.389,0.402c-0.828-0.095,0.189,0.532-0.603,0.603c-1.443-0.367-5.062,0.237-5.997-1.999
							c-1.266-3.016,1.597-6.576,4.601-7.593c0.532-0.189,1.23,0.189,1.597-0.402c3.288,0.781,6.955-0.319,11.189-0.402
							c0.071-0.343-0.296-0.509,0-0.591c4.506-0.402,10.55,0.769,15.376,0.994c3.028,0.142,5.843-0.686,8.397-0.603
							c5.772,0.201,6.576,6.115,2.791,8.788c-1.23-0.355-1.691,1.1-2.188,0.804c-0.106-0.473-2.791-1.348-3.797-1.999
							c0.449-1.053-1.266-1.49-1.407-2.59C44.454,19.74,49.528,22.13,53.029,20.959z M45.837,17.162
							c0.71-0.296,1.478-0.52,2.602-0.402c-0.154-1.053-3.099-0.934-2.602,0C46.452,16.346,45.92,16.724,45.837,17.162z
							 M37.842,17.564c0.047-0.378,0.52-1.325,0-1.597C38.079,16.618,37.239,17.198,37.842,17.564z M18.067,16.169
							c-2.649-0.343-5.819,1.502-3.596,3.596C13.584,16.476,17.333,17.824,18.067,16.169z"/>
					</g>
				</g>
			</g>
		</g>
	</g>
</g>
</svg>
