<?xml version="1.0" encoding="utf-8"?>
<!-- Generator: Adobe Illustrator 17.0.0, SVG Export Plug-In . SVG Version: 6.00 Build 0)  -->
<!DOCTYPE svg PUBLIC "-//W3C//DTD SVG 1.1//EN" "http://www.w3.org/Graphics/SVG/1.1/DTD/svg11.dtd">
<svg version="1.1" id="Layer_1" xmlns="http://www.w3.org/2000/svg" xmlns:xlink="http://www.w3.org/1999/xlink" x="0px" y="0px"
	 width="25.967px" height="15.449px" viewBox="0 0 25.967 15.449" enable-background="new 0 0 25.967 15.449" xml:space="preserve">
<g>
	<g>
		<g>
			<g>
				<g>
					<path fill="#009941" d="M24.445,3.969c1.085,1.216,1.979,3.344,1.268,5.454c-0.355,1.048-1.211,2.095-1.979,2.764
						c-5.009,4.392-17.522,4.509-22.194-0.631c-1.244-1.361-2.095-3.522-1.109-5.847C2.049,1.883,7.12,0.241,12.438,0.016
						C17.143-0.18,22.153,1.406,24.445,3.969z M20.97,8.314c1.403-0.767,1.632-3.087,0.243-3.948
						c-1.763-0.36-3.648,0.061-5.692-0.159C12.695,3.899,9.776,4.02,7.143,4.441c-0.098-0.29-0.491-0.239-0.711-0.234
						C4.814,4.24,2.587,5.863,2.957,7.762C3.135,8.665,3.962,9.039,5.01,9.025c1.464-0.019,2.699-0.917,3.555-1.66
						c-0.08,1.548-0.449,3.499-0.393,5.136c2.666-0.075,5.379-0.748,8.218-0.79c-0.023,0.341-0.042,0.674,0.318,0.636
						c0.29-0.08,0.084-0.65,0.393-0.711c0.463,0.065,0.879,0.168,1.268,0.313c0.023-0.187,0.271-0.145,0.229-0.393
						c-0.295-0.393-1.123-0.248-1.651-0.398c0-1.558-0.14-2.97-0.084-4.584c-0.005-0.126-0.22-0.042-0.234-0.154
						c-0.023-0.341,0.374-0.262,0.398-0.557c-0.21-0.028-0.243-0.234-0.482-0.234c-0.37,1.296-0.023,4.574-0.154,5.608
						c-0.884-0.061-1.263,0.15-1.735,0c-0.103-1.464,0.664-3.733-0.08-4.504c-0.164,1.815-0.285,2.895-0.318,4.663
						c-0.805,0.21-2.325,0.225-2.764,0.313c-0.098-1.866,0.173-3.7,0.08-5.449c-0.009,0.098-0.028,0.187-0.164,0.159
						c-0.014-0.379,0.131-0.594,0.239-0.239c-0.009-0.225,0.07-0.543-0.154-0.552c-0.5,1.759-0.533,3.868-0.393,6.081
						c-0.879,0.271-1.782,0.496-2.456,0.08C8.659,9.642,9.22,7.641,9.042,5.863c0.239-0.262,0.08,0.346,0.318,0.08
						C9.416,5.681,9.224,5.658,9.042,5.63C8.738,5.85,8.803,6.692,8.729,6.893C8.514,6.537,7.658,5.924,7.386,6.574
						C7.63,6.808,7.901,6.672,8.247,6.892c0.103,0.196-0.225,0.327,0,0.398c0.122-0.051,0.337-0.402,0.398-0.239
						C8.537,7.252,8.177,7.617,8.018,7.29c-0.009,0.136,0.014,0.243,0.08,0.313C7.531,7.795,7.054,8.01,6.989,8.314
						C6.61,8.062,6.161,8.852,6.039,8.473C5.716,8.436,6.114,8.683,5.8,8.712c-0.566-0.145-2.002,0.094-2.371-0.79
						C2.933,6.728,4.061,5.321,5.253,4.918C5.459,4.843,5.74,4.993,5.885,4.759c1.3,0.309,2.75-0.126,4.42-0.159
						c0.028-0.136-0.112-0.201,0-0.234c1.782-0.159,4.177,0.304,6.085,0.393c1.197,0.056,2.306-0.271,3.321-0.239
						c2.283,0.08,2.601,2.418,1.104,3.475c-0.486-0.14-0.674,0.435-0.87,0.318c-0.037-0.187-1.104-0.533-1.497-0.79
						c0.173-0.416-0.505-0.589-0.561-1.024C17.583,7.832,19.59,8.777,20.97,8.314z M18.13,6.813
						c0.276-0.117,0.585-0.206,1.024-0.159c-0.061-0.416-1.221-0.37-1.024,0C18.374,6.49,18.158,6.64,18.13,6.813z M14.968,6.972
						c0.014-0.15,0.201-0.524,0-0.631C15.062,6.597,14.725,6.827,14.968,6.972z M7.143,6.42C6.095,6.284,4.842,7.014,5.721,7.842
						C5.375,6.541,6.853,7.075,7.143,6.42z"/>
				</g>
			</g>
		</g>
	</g>
</g>
</svg>
